<?xml version="1.0" encoding="utf-8"?>
<!-- Generator: Adobe Illustrator 24.1.1, SVG Export Plug-In . SVG Version: 6.00 Build 0)  -->
<svg version="1.1" id="Layer_1" xmlns="http://www.w3.org/2000/svg" xmlns:xlink="http://www.w3.org/1999/xlink" x="0px" y="0px"
	 viewBox="0 0 50 50" style="enable-background:new 0 0 50 50;" xml:space="preserve">
<style type="text/css">
	.st0{fill:#212121;}
</style>
<g>
	<path class="st0" d="M32.4,35.3c-2.9,2.9-7.3,3.9-11.2,2.5s-6.7-4.6-7.4-8.7l1.5,0.9c0.7,0.4,1.5,0.3,2-0.2
		c0.1-0.1,0.1-0.1,0.2-0.2c0.4-0.7,0.2-1.7-0.5-2.1L12,24.3c-0.4-0.2-0.9-0.3-1.2-0.2c-0.4,0.1-0.8,0.4-0.9,0.8L7,30.4
		c-0.4,0.8-0.1,1.7,0.7,2.1c0.8,0.4,1.7,0.1,2.1-0.7l1-2c0.9,5,4.4,9.1,9.4,10.7c5.2,1.7,10.7,0.5,14.4-3.3l0,0
		c0.6-0.6,0.6-1.6,0-2.2C34,34.7,33.1,34.6,32.4,35.3z"/>
	<path class="st0" d="M42,19.1c-0.8-0.4-1.7-0.1-2.1,0.7l-1,2c-0.9-5-4.4-9.1-9.4-10.7c-5.2-1.7-10.7-0.5-14.4,3.3l0,0
		c-0.6,0.6-0.6,1.6,0,2.2s1.6,0.6,2.2,0c2.9-2.9,7.3-3.9,11.2-2.5s6.7,4.6,7.4,8.7l-1.5-0.9c-0.7-0.4-1.7-0.2-2.1,0.5
		s-0.2,1.7,0.5,2.1l4.8,3c0.4,0.2,0.9,0.3,1.2,0.2c0.2-0.1,0.5-0.2,0.7-0.4c0.1-0.1,0.2-0.2,0.3-0.4l2.9-5.5
		C43.1,20.4,42.7,19.5,42,19.1z"/>
</g>
</svg>
