<?xml version="1.0" encoding="utf-8"?>
<!-- Generator: Adobe Illustrator 24.1.2, SVG Export Plug-In . SVG Version: 6.00 Build 0)  -->
<svg version="1.1" id="Layer_1" xmlns="http://www.w3.org/2000/svg" xmlns:xlink="http://www.w3.org/1999/xlink" x="0px" y="0px"
	 viewBox="0 0 50 50" style="enable-background:new 0 0 50 50;" xml:space="preserve">
<style type="text/css">
	.st0{fill:#A7A7A7;}
</style>
<g>
	<path class="st0" d="M29.4,11.9H15.9c-3.3,0-6,2.7-6,6v19.3c0,3.3,2.7,6,6,6h13.6c3.3,0,6-2.7,6-6V17.9
		C35.4,14.6,32.7,11.9,29.4,11.9z M13.3,17.9c0-1.4,1.1-2.6,2.6-2.6h13.6c1.4,0,2.6,1.1,2.6,2.6v19.3c0,1.4-1.1,2.6-2.6,2.6H15.9
		c-1.4,0-2.6-1.1-2.6-2.6V17.9z"/>
	<path class="st0" d="M36.1,5.2H20.3c-0.9,0-1.7,0.8-1.7,1.7c0,0.9,0.8,1.7,1.7,1.7h15.8c1.4,0,2.6,1.1,2.6,2.6v21.5
		c0,0.9,0.8,1.7,1.7,1.7s1.7-0.8,1.7-1.7V11.1C42.1,7.9,39.4,5.2,36.1,5.2z"/>
</g>
</svg>
