<?xml version="1.0" encoding="utf-8"?>
<!-- Generator: Adobe Illustrator 24.0.2, SVG Export Plug-In . SVG Version: 6.00 Build 0)  -->
<svg version="1.1" id="Layer_1" xmlns="http://www.w3.org/2000/svg" xmlns:xlink="http://www.w3.org/1999/xlink" x="0px" y="0px"
	 viewBox="0 0 50 50" style="enable-background:new 0 0 50 50;" xml:space="preserve">
<style type="text/css">
	.st0{fill:#DFDFDF;}
</style>
<g>
	<path class="st0" d="M20.7,39.9c-0.1,0-0.3,0-0.4-0.1c-0.8-0.2-1.3-1-1.1-1.8l7.3-26.7c0.2-0.8,1-1.3,1.8-1.1s1.3,1,1.1,1.8
		l-7.3,26.7C22,39.4,21.4,39.9,20.7,39.9z"/>
</g>
<g>
	<path class="st0" d="M33,32.9c-0.5,0-1-0.3-1.3-0.7c-0.4-0.7-0.2-1.6,0.5-2.1l8.3-5.1l-8.3-5.1c-0.7-0.4-0.9-1.4-0.5-2.1
		c0.4-0.7,1.4-0.9,2.1-0.5l10.4,6.4c0.4,0.3,0.7,0.8,0.7,1.3s-0.3,1-0.7,1.3l-10.4,6.4C33.6,32.8,33.3,32.9,33,32.9z"/>
</g>
<g>
	<path class="st0" d="M15.7,32.9c-0.3,0-0.5-0.1-0.8-0.2L4.5,26.3C4.1,26,3.8,25.5,3.8,25s0.3-1,0.7-1.3l10.4-6.4
		c0.7-0.4,1.6-0.2,2.1,0.5c0.4,0.7,0.2,1.6-0.5,2.1L8.2,25l8.3,5.1c0.7,0.4,0.9,1.4,0.5,2.1C16.7,32.7,16.2,32.9,15.7,32.9z"/>
</g>
</svg>
