<?xml version="1.0" encoding="utf-8"?>
<!-- Generator: Adobe Illustrator 24.0.2, SVG Export Plug-In . SVG Version: 6.00 Build 0)  -->
<svg version="1.1" id="Layer_1" xmlns="http://www.w3.org/2000/svg" xmlns:xlink="http://www.w3.org/1999/xlink" x="0px" y="0px"
	 viewBox="0 0 50 50" style="enable-background:new 0 0 50 50;" xml:space="preserve">
<style type="text/css">
	.st0{fill:#FFFFFF;}
	.st1{fill:#202020;}
</style>
<polygon class="st0" points="43,33.5 19.8,33.5 20.1,5.2 35.3,5.2 43.5,13.4 "/>
<path class="st1" d="M18.6,6.3v10.4v1.8v14.2c0,1.2,1,2.2,2.2,2.2h4.4H27h14.6c1.2,0,2.2-0.9,2.3-2.2V14c0-0.6-0.3-1.2-0.7-1.6
	l-7.6-7.6c-0.5-0.5-1-0.7-1.6-0.7H20.8C19.6,4.1,18.6,5.1,18.6,6.3z M40.6,12.4h-5c-0.1,0-0.2-0.1-0.2-0.2v-5L40.6,12.4z M20.4,6.3
	c0-0.2,0.2-0.4,0.4-0.4h12.8v6.3c0,1.2,0.9,2.1,2.1,2.1H42v18.4c0,0.2-0.2,0.4-0.4,0.4H20.8c-0.2,0-0.4-0.2-0.4-0.4V6.3z"/>
<rect x="7.8" y="16.8" class="st0" width="22.9" height="28.9"/>
<path class="st1" d="M6.6,17.8v10.4V30v14.2c0,1.2,1,2.2,2.2,2.2h4.4H15h14.6c1.2,0,2.2-0.9,2.3-2.2V25.5c0-0.6-0.3-1.2-0.7-1.6
	l-7.6-7.6c-0.5-0.5-1-0.7-1.6-0.7H8.8C7.6,15.6,6.6,16.6,6.6,17.8z M28.6,23.9h-5c-0.1,0-0.2-0.1-0.2-0.2v-5L28.6,23.9z M8.4,17.8
	c0-0.2,0.2-0.4,0.4-0.4h12.8v6.3c0,1.2,0.9,2.1,2.1,2.1H30v18.4c0,0.2-0.2,0.4-0.4,0.4H8.8c-0.2,0-0.4-0.2-0.4-0.4
	C8.4,44.2,8.4,17.8,8.4,17.8z"/>
<g>
	<rect x="11.2" y="29" class="st0" width="26.1" height="12.2"/>
</g>
<g>
	<path class="st1" d="M12.2,42.1c-1,0-1.9-0.8-1.9-1.9V29.8c0-1,0.8-1.9,1.9-1.9h24.4c1,0,1.9,0.9,1.9,1.9v10.4c0,1-0.8,1.9-1.9,1.9
		H12.2z M12.2,29.8C12.2,29.8,12.2,29.8,12.2,29.8l-0.1,10.5l24.4,0l0-10.5L12.2,29.8z"/>
	<path class="st1" d="M36.6,28.1H12.2c-1,0-1.7,0.8-1.7,1.7v10.4c0,1,0.8,1.7,1.7,1.7h24.4c1,0,1.7-0.8,1.7-1.7V29.8
		C38.3,28.9,37.5,28.1,36.6,28.1z M36.8,40.2c0,0.1-0.1,0.2-0.2,0.2H12.2c-0.1,0-0.2-0.1-0.2-0.2V29.8c0-0.1,0.1-0.2,0.2-0.2h24.4
		c0.1,0,0.2,0.1,0.2,0.2V40.2z"/>
</g>
<path class="st1" d="M30.8,8.2h-7.2c-0.5,0-0.9,0.4-0.9,0.9s0.4,0.9,0.9,0.9h7.2c0.5,0,0.9-0.4,0.9-0.9S31.3,8.2,30.8,8.2z"/>
<path class="st1" d="M30.8,12.3h-7.2c-0.5,0-0.9,0.4-0.9,0.9s0.4,0.9,0.9,0.9h7.2c0.5,0,0.9-0.4,0.9-0.9S31.3,12.3,30.8,12.3z"/>
<path class="st1" d="M18.5,19.9h-7.2c-0.5,0-0.9,0.4-0.9,0.9s0.4,0.9,0.9,0.9h7.2c0.5,0,0.9-0.4,0.9-0.9S19,19.9,18.5,19.9z"/>
<path class="st1" d="M18.5,24h-7.2c-0.5,0-0.9,0.4-0.9,0.9s0.4,0.9,0.9,0.9h7.2c0.5,0,0.9-0.4,0.9-0.9S19,24,18.5,24z"/>
<path class="st1" d="M39.7,16.5h-9.9c-0.5,0-0.9,0.4-0.9,0.9s0.4,0.9,0.9,0.9h9.9c0.5,0,0.9-0.4,0.9-0.9S40.2,16.5,39.7,16.5z"/>
<path class="st1" d="M39.7,20.7h-6.9c-0.5,0-0.9,0.4-0.9,0.9s0.4,0.9,0.9,0.9h6.9c0.5,0,0.9-0.4,0.9-0.9S40.2,20.7,39.7,20.7z"/>
<path class="st1" d="M39.7,24.9h-5.3c-0.5,0-0.9,0.4-0.9,0.9s0.4,0.9,0.9,0.9h5.3c0.5,0,0.9-0.4,0.9-0.9S40.2,24.9,39.7,24.9z"/>
<g>
	<path class="st1" d="M18.5,31.3c-1.8,0-2.5,0.7-2.5,2.3v2.8c0,1.6,0.8,2.3,2.5,2.3c1.8,0,2.6-0.7,2.6-2.4v-0.2h-1.6v0.2
		c0,0.6-0.1,0.9-0.9,0.9s-0.9-0.2-0.9-0.8v-2.7c0-0.6,0.1-0.8,0.9-0.8s0.9,0.3,0.9,0.9V34h1.6v-0.2C21.1,32,20.3,31.3,18.5,31.3z"/>
	<path class="st1" d="M25.1,34.2c-0.2,0-0.3,0-0.5-0.1c-0.8-0.1-1.1-0.2-1.1-0.7s0.2-0.7,0.8-0.7c0.5,0,0.7,0.1,0.7,0.6v0.2h1.7
		v-0.2c-0.1-1.4-0.9-2-2.4-2c-1.6,0-2.4,0.8-2.4,2.2c0,1.3,0.6,2,1.8,2.1H24c0.8,0.1,1.3,0.2,1.3,0.7c0,0.7-0.2,0.9-0.9,0.9
		c-0.8,0-0.8-0.3-0.9-0.6v-0.2h-1.6v0.2c0,1,0.4,2.2,2.5,2.2c1.8,0,2.6-0.8,2.6-2.5C26.9,34.7,26,34.3,25.1,34.2z"/>
	<polygon class="st1" points="31.1,31.3 30.4,33.6 30,35.9 29.5,33.6 28.9,31.3 27.2,31.3 29.2,38.7 30.8,38.7 32.8,31.3 	"/>
</g>
</svg>
