<?xml version="1.0" encoding="utf-8"?>
<!-- Generator: Adobe Illustrator 24.1.1, SVG Export Plug-In . SVG Version: 6.00 Build 0)  -->
<svg version="1.1" id="Layer_1" xmlns="http://www.w3.org/2000/svg" xmlns:xlink="http://www.w3.org/1999/xlink" x="0px" y="0px"
	 viewBox="0 0 50 50" style="enable-background:new 0 0 50 50;" xml:space="preserve">
<style type="text/css">
	.st0{fill:#212121;}
</style>
<g>
	<path class="st0" d="M41,42.6H8c-0.8,0-1.5-0.7-1.5-1.5v-31c0-0.8,0.7-1.5,1.5-1.5s1.5,0.7,1.5,1.5v29.5H41c0.8,0,1.5,0.7,1.5,1.5
		S41.8,42.6,41,42.6z"/>
</g>
<g>
	<path class="st0" d="M16,35.1c-0.3,0-0.6-0.1-0.8-0.3c-0.7-0.5-0.9-1.4-0.4-2.1l8-11.8c0.5-0.7,1.4-0.9,2.1-0.4l6.1,4l7.8-12.3
		c0.4-0.7,1.4-0.9,2.1-0.5c0.7,0.4,0.9,1.4,0.5,2.1l-8.6,13.6c-0.2,0.3-0.6,0.6-1,0.7c-0.4,0.1-0.8,0-1.1-0.2l-6.2-4.1l-7.2,10.6
		C16.9,34.8,16.5,35.1,16,35.1z"/>
</g>
</svg>
