<?xml version="1.0" encoding="utf-8"?>
<!-- Generator: Adobe Illustrator 24.0.2, SVG Export Plug-In . SVG Version: 6.00 Build 0)  -->
<svg version="1.1" id="Layer_1" xmlns="http://www.w3.org/2000/svg" xmlns:xlink="http://www.w3.org/1999/xlink" x="0px" y="0px"
	 viewBox="0 0 50 50" style="enable-background:new 0 0 50 50;" xml:space="preserve">
<style type="text/css">
	.st0{fill:#FFFFFF;}
	.st1{fill:#202020;}
</style>
<rect x="5.3" y="4.5" class="st0" width="23.2" height="29"/>
<polygon class="st0" points="45.4,37.5 37.2,45.7 22.1,45.7 21.7,17.5 44.9,17.5 "/>
<g>
	<path class="st1" d="M43.8,15.9H29.2V5.5c0-1.2-1-2.2-2.2-2.2H6.2C5,3.3,4,4.3,4,5.5v26.4c0,1.2,1,2.2,2.2,2.2h14.6v10.4
		c0,1.2,1,2.2,2.2,2.2h13.2c0.6,0,1.1-0.2,1.6-0.7l7.6-7.6c0.4-0.4,0.7-1,0.7-1.6V18.1C46,16.8,45,15.9,43.8,15.9z M20.8,18.1v14.2
		H6.2c-0.2,0-0.4-0.2-0.4-0.4V5.5c0-0.2,0.2-0.4,0.4-0.4H27c0.2,0,0.4,0.2,0.4,0.4v10.4H23C21.8,15.9,20.8,16.9,20.8,18.1z
		 M37.6,43.6v-5c0-0.1,0.1-0.2,0.2-0.2h5L37.6,43.6z M44.2,36.5h-6.3c-1.2,0-2.1,0.9-2.1,2.1v6.3H23c-0.2,0-0.4-0.2-0.4-0.4V18.1
		c0-0.2,0.2-0.4,0.4-0.4h20.8c0.2,0,0.4,0.2,0.4,0.4V36.5z"/>
	<path class="st1" d="M40.9,28.4H25.7c-0.5,0-0.9,0.4-0.9,0.9s0.4,0.9,0.9,0.9h15.2c0.5,0,0.9-0.4,0.9-0.9S41.4,28.4,40.9,28.4z"/>
	<path class="st1" d="M40.9,32.5H25.7c-0.5,0-0.9,0.4-0.9,0.9s0.4,0.9,0.9,0.9h15.2c0.5,0,0.9-0.4,0.9-0.9S41.4,32.5,40.9,32.5z"/>
	<path class="st1" d="M32.5,36.7h-6.9c-0.5,0-0.9,0.4-0.9,0.9s0.4,0.9,0.9,0.9h6.9c0.5,0,0.9-0.4,0.9-0.9S33,36.7,32.5,36.7z"/>
	<path class="st1" d="M40.9,24.2h-6.6c-0.5,0-0.9,0.4-0.9,0.9s0.4,0.9,0.9,0.9h6.6c0.5,0,0.9-0.4,0.9-0.9S41.4,24.2,40.9,24.2z"/>
	<path class="st1" d="M40.9,20h-6.6c-0.5,0-0.9,0.4-0.9,0.9s0.4,0.9,0.9,0.9h6.6c0.5,0,0.9-0.4,0.9-0.9S41.4,20,40.9,20z"/>
	<path class="st1" d="M32.5,40.9h-6.9c-0.5,0-0.9,0.4-0.9,0.9s0.4,0.9,0.9,0.9h6.9c0.5,0,0.9-0.4,0.9-0.9S33,40.9,32.5,40.9z"/>
	<path class="st1" d="M26.2,26h3.7c0.6,0,1.2-0.5,1.2-1.2v-3.7c0-0.7-0.5-1.2-1.2-1.2h-3.7c-0.7,0-1.2,0.5-1.2,1.2v3.7
		C25,25.5,25.6,26,26.2,26z"/>
	<path class="st1" d="M25.1,12.6c0-0.5-0.4-0.9-0.9-0.9h-6.6c-0.5,0-0.9,0.4-0.9,0.9c-0.1,0.4,0.3,0.9,0.9,0.9h6.6
		C24.7,13.5,25.1,13.1,25.1,12.6z"/>
	<path class="st1" d="M17.6,9.3h6.6c0.5,0,0.9-0.4,0.9-0.9s-0.4-0.9-0.9-0.9h-6.6c-0.5,0-0.9,0.4-0.9,0.9S17,9.3,17.6,9.3z"/>
	<path class="st1" d="M9.4,13.5h3.7c0.6,0,1.2-0.5,1.2-1.2V8.6c0-0.7-0.5-1.2-1.2-1.2H9.4C8.8,7.4,8.3,8,8.3,8.6v3.7
		C8.3,12.9,8.8,13.5,9.4,13.5z"/>
	<path class="st1" d="M7.9,29.3c0,0.5,0.4,0.9,0.9,0.9h9.8v-1.9H8.9C8.4,28.3,7.9,28.7,7.9,29.3z"/>
	<path class="st1" d="M7.9,25.1c0,0.5,0.4,0.9,0.9,0.9h9.8v-1.9H8.9C8.4,24.1,7.9,24.6,7.9,25.1z"/>
	<path class="st1" d="M7.9,20.9c0,0.5,0.4,0.9,0.9,0.9h9.8V20H8.9C8.4,20,7.9,20.4,7.9,20.9z"/>
	<path class="st1" d="M7.9,16.7c0,0.5,0.4,0.9,0.9,0.9h9.8c0-0.7,0.2-1.3,0.5-1.9H8.9C8.4,15.8,7.9,16.2,7.9,16.7z"/>
</g>
</svg>
