<?xml version="1.0" encoding="utf-8"?>
<!-- Generator: Adobe Illustrator 24.0.2, SVG Export Plug-In . SVG Version: 6.00 Build 0)  -->
<svg version="1.1" id="Layer_1" xmlns="http://www.w3.org/2000/svg" xmlns:xlink="http://www.w3.org/1999/xlink" x="0px" y="0px"
	 viewBox="0 0 50 50" style="enable-background:new 0 0 50 50;" xml:space="preserve">
<style type="text/css">
	.st0{fill:#202020;}
</style>
<path class="st0" d="M36.5,13l-6.3-3.4c-0.5-0.3-1.1-0.1-1.4,0.4l-13,23.7c-0.1,0.2-0.1,0.3-0.1,0.5l-0.1,7.5c0,0.4,0.2,0.7,0.5,0.9
	c0.3,0.2,0.7,0.2,1.1,0l6.3-4.1c0.1-0.1,0.3-0.2,0.3-0.4l13-23.7C37.2,13.9,37,13.2,36.5,13z M34.6,14.3l-1.8,3.2l-4.4-2.4l1.8-3.2
	L34.6,14.3z M31.8,19.3l-8,14.6l-4.4-2.4l8-14.6L31.8,19.3z M17.7,39.8l0-5.4l0.6-1.1l4.4,2.4l-0.6,1.1L17.7,39.8z"/>
</svg>
