<?xml version="1.0" encoding="utf-8"?>
<!-- Generator: Adobe Illustrator 24.1.1, SVG Export Plug-In . SVG Version: 6.00 Build 0)  -->
<svg version="1.1" id="Layer_1" xmlns="http://www.w3.org/2000/svg" xmlns:xlink="http://www.w3.org/1999/xlink" x="0px" y="0px"
	 viewBox="0 0 50 50" style="enable-background:new 0 0 50 50;" xml:space="preserve">
<style type="text/css">
	.st0{fill:#F44336;}
</style>
<g>
	<path class="st0" d="M34.3,18.5c0.3-0.3,0.5-0.7,0.5-1.1c0-0.5-0.2-0.9-0.4-1.2c-0.2-0.2-0.5-0.3-0.8-0.4c-0.1,0-0.2-0.1-0.3-0.1
		c-0.4,0-0.8,0.1-1.1,0.4l-7,7l-7-7c-0.3-0.3-0.8-0.4-1.2-0.4c-0.4,0-0.8,0.2-1.1,0.5s-0.5,0.7-0.5,1.1c0,0.4,0.2,0.8,0.5,1.1l7,7
		l-6.9,7c-0.3,0.3-0.5,0.7-0.5,1.1c0,0.4,0.2,0.8,0.5,1.1s0.7,0.5,1.1,0.5c0.4,0,0.8-0.2,1.1-0.5l6.9-7l7,7c0.7,0.6,1.7,0.6,2.3,0
		c0.3-0.3,0.5-0.7,0.5-1.1c0-0.4-0.2-0.8-0.5-1.1l-0.1-0.1c0,0,0,0,0,0l0,0l-6.9-6.9L34.3,18.5z"/>
	<path class="st0" d="M25,6C14.5,6,6,14.5,6,25s8.5,19,19,19s19-8.5,19-19S35.5,6,25,6z M25,41.5c-9.1,0-16.5-7.4-16.5-16.5
		c0-9.1,7.4-16.5,16.5-16.5c9.1,0,16.5,7.4,16.5,16.5C41.5,34.1,34.1,41.5,25,41.5z"/>
</g>
</svg>
