<?xml version="1.0" encoding="utf-8"?>
<!-- Generator: Adobe Illustrator 24.1.1, SVG Export Plug-In . SVG Version: 6.00 Build 0)  -->
<svg version="1.1" id="Layer_1" xmlns="http://www.w3.org/2000/svg" xmlns:xlink="http://www.w3.org/1999/xlink" x="0px" y="0px"
	 viewBox="0 0 50 50" style="enable-background:new 0 0 50 50;" xml:space="preserve">
<style type="text/css">
	.st0{fill:#212121;}
</style>
<g>
	<path class="st0" d="M24.8,44.7c-10.6,0-19.3-8.7-19.3-19.3c0-10.6,8.7-19.3,19.3-19.3s19.3,8.7,19.3,19.3
		C44.1,36.1,35.5,44.7,24.8,44.7z M24.8,9.1c-9,0-16.3,7.3-16.3,16.3c0,9,7.3,16.3,16.3,16.3s16.3-7.3,16.3-16.3
		C41.1,16.4,33.8,9.1,24.8,9.1z"/>
</g>
<g>
	<path class="st0" d="M24.8,35.9c-1,0-1.8-0.8-1.8-1.8V23.1c0-1,0.8-1.8,1.8-1.8s1.8,0.8,1.8,1.8v11.1
		C26.6,35.1,25.8,35.9,24.8,35.9z"/>
</g>
<g>
	<path class="st0" d="M24.8,18.5c-1.1,0-2-0.9-2-2s0.9-2,2-2s2,0.9,2,2v0.1C26.8,17.6,25.9,18.5,24.8,18.5z"/>
</g>
</svg>
