<?xml version="1.0" encoding="utf-8"?>
<!-- Generator: Adobe Illustrator 24.0.2, SVG Export Plug-In . SVG Version: 6.00 Build 0)  -->
<svg version="1.1" id="Layer_1" xmlns="http://www.w3.org/2000/svg" xmlns:xlink="http://www.w3.org/1999/xlink" x="0px" y="0px"
	 viewBox="0 0 50 50" style="enable-background:new 0 0 50 50;" xml:space="preserve">
<style type="text/css">
	.st0{opacity:0.87;}
	.st1{fill:#010202;}
</style>
<g class="st0">
	<path class="st1" d="M17.85,11.22c-0.01-0.02-0.02-0.03-0.03-0.05c-0.02-0.04-0.04-0.08-0.06-0.12c-0.02-0.05-0.05-0.09-0.08-0.14
		c-0.03-0.04-0.05-0.07-0.08-0.11c-0.03-0.04-0.06-0.07-0.09-0.11c-0.04-0.04-0.08-0.07-0.12-0.1c-0.03-0.02-0.06-0.05-0.09-0.07
		c-0.05-0.03-0.1-0.06-0.15-0.09c-0.03-0.02-0.06-0.03-0.1-0.05c-0.02-0.01-0.04-0.02-0.06-0.03c-0.04-0.01-0.07-0.02-0.11-0.03
		c-0.04-0.01-0.07-0.02-0.11-0.03c-0.05-0.01-0.1-0.02-0.15-0.02c-0.05,0-0.09-0.01-0.14-0.01c-0.04,0-0.09,0-0.13,0.01
		c-0.05,0-0.11,0.01-0.16,0.02c-0.04,0.01-0.07,0.02-0.11,0.03c-0.04,0.01-0.07,0.02-0.11,0.03c-0.02,0.01-0.04,0.02-0.06,0.03
		c-0.03,0.01-0.06,0.03-0.1,0.05c-0.05,0.03-0.1,0.05-0.15,0.09c-0.03,0.02-0.06,0.05-0.1,0.07c-0.04,0.03-0.08,0.06-0.12,0.1
		c-0.03,0.03-0.06,0.07-0.1,0.11c-0.03,0.03-0.06,0.07-0.08,0.1c-0.03,0.04-0.05,0.09-0.08,0.14c-0.02,0.04-0.04,0.07-0.06,0.11
		c-0.01,0.02-0.02,0.03-0.03,0.05L7.42,31.76c-0.28,0.75,0.1,1.59,0.85,1.88c0.17,0.06,0.34,0.09,0.51,0.09
		c0.59,0,1.15-0.36,1.37-0.95l1.53-4.09c0.11,0.03,0.23,0.05,0.35,0.05h9.13c0.05,0,0.09-0.01,0.13-0.01l1.52,4.06
		c0.22,0.59,0.77,0.95,1.36,0.95c0.17,0,0.34-0.03,0.51-0.09c0.75-0.28,1.14-1.12,0.85-1.88L17.85,11.22z M12.76,25.82l3.72-9.94
		l3.72,9.94H12.76z"/>
	<path class="st1" d="M34.21,24.75c-1.42,0-2.62,0.42-3.38,1.18v-8.2c0-0.8-0.65-1.44-1.44-1.44s-1.44,0.65-1.44,1.44v16.02
		c0,4.25,1.7,5.98,5.88,5.98s5.88-1.73,5.88-5.98v-2.96C39.7,26.67,37.96,24.75,34.21,24.75z M36.84,33.74
		c0,2.71-1.06,3.22-3.01,3.22s-3.01-0.51-3.01-3.22l0.03-3.02c0.03-2.84,1.53-3.22,2.99-3.22c2,0,3.01,0.51,3.01,3.32V33.74z"/>
</g>
</svg>
