<?xml version="1.0" encoding="utf-8"?>
<!-- Generator: Adobe Illustrator 24.0.2, SVG Export Plug-In . SVG Version: 6.00 Build 0)  -->
<svg version="1.1" id="Layer_1" xmlns="http://www.w3.org/2000/svg" xmlns:xlink="http://www.w3.org/1999/xlink" x="0px" y="0px"
	 viewBox="0 0 50 50" style="enable-background:new 0 0 50 50;" xml:space="preserve">
<style type="text/css">
	.st0{opacity:0.87;}
	.st1{fill:#010202;}
</style>
<g class="st0">
	<path class="st1" d="M17.85,11.4c-0.01-0.02-0.02-0.03-0.03-0.05c-0.02-0.04-0.04-0.08-0.06-0.12c-0.02-0.05-0.05-0.09-0.08-0.14
		c-0.03-0.04-0.05-0.07-0.08-0.11s-0.06-0.07-0.09-0.11c-0.04-0.04-0.08-0.07-0.12-0.1c-0.03-0.02-0.06-0.05-0.09-0.07
		c-0.05-0.03-0.1-0.06-0.15-0.09c-0.03-0.02-0.06-0.03-0.1-0.05c-0.02-0.01-0.04-0.02-0.06-0.03c-0.04-0.01-0.07-0.02-0.11-0.03
		c-0.04-0.01-0.07-0.02-0.11-0.03c-0.05-0.01-0.1-0.02-0.15-0.02s-0.09-0.01-0.14-0.01c-0.04,0-0.09,0-0.13,0.01
		c-0.05,0-0.11,0.01-0.16,0.02c-0.04,0.01-0.07,0.02-0.11,0.03c-0.04,0.01-0.07,0.02-0.11,0.03c-0.02,0.01-0.04,0.02-0.06,0.03
		c-0.03,0.01-0.06,0.03-0.1,0.05c-0.05,0.03-0.1,0.05-0.15,0.09c-0.03,0.02-0.06,0.05-0.1,0.07c-0.04,0.03-0.08,0.06-0.12,0.1
		c-0.03,0.03-0.06,0.07-0.1,0.11c-0.03,0.03-0.06,0.07-0.08,0.1c-0.03,0.04-0.05,0.09-0.08,0.14c-0.02,0.04-0.04,0.07-0.06,0.11
		c-0.01,0.02-0.02,0.03-0.03,0.05L7.42,31.94c-0.28,0.75,0.1,1.59,0.85,1.88c0.17,0.06,0.34,0.09,0.51,0.09
		c0.59,0,1.15-0.36,1.37-0.95l1.53-4.09c0.11,0.03,0.23,0.05,0.35,0.05h9.13c0.05,0,0.09-0.01,0.13-0.01l1.52,4.06
		c0.22,0.59,0.77,0.95,1.36,0.95c0.17,0,0.34-0.03,0.51-0.09c0.75-0.28,1.14-1.12,0.85-1.88L17.85,11.4z M12.76,26l3.72-9.94
		L20.21,26H12.76z"/>
	<path class="st1" d="M34.15,24.11c-1.39,0-2.59,0.45-3.35,1.23c0.03-2.59,0.27-5.63,3.14-5.86l0.26-0.02
		c1.13-0.08,2.04-0.15,2.95-0.61c0.66-0.33,0.86-1.19,0.47-1.82c-0.33-0.53-1-0.72-1.59-0.5c-0.57,0.21-1.16,0.24-1.81,0.27
		l-0.47,0.02c-4.92,0.35-5.81,4.65-5.81,9.08v8.12c0,4.17,1.69,5.87,5.84,5.87c4.1,0,5.77-1.7,5.77-5.87v-4.01
		C39.56,26.05,37.79,24.11,34.15,24.11z M36.73,34.04c0,2.65-1.08,3.17-2.94,3.17c-1.97,0-3.04-0.5-3.04-3.17V30
		c0.03-2.79,1.48-3.17,3.04-3.17c1.95,0,2.94,0.51,2.94,3.27V34.04z"/>
</g>
</svg>
