<?xml version="1.0" encoding="utf-8"?>
<!-- Generator: Adobe Illustrator 24.0.2, SVG Export Plug-In . SVG Version: 6.00 Build 0)  -->
<svg version="1.1" id="Layer_1" xmlns="http://www.w3.org/2000/svg" xmlns:xlink="http://www.w3.org/1999/xlink" x="0px" y="0px"
	 viewBox="0 0 50 50" style="enable-background:new 0 0 50 50;" xml:space="preserve">
<style type="text/css">
	.st0{fill:#202020;}
</style>
<path class="st0" d="M44.9,39.28l-7.73-20.6c-0.02-0.04-0.04-0.09-0.06-0.13c-0.03-0.05-0.06-0.11-0.09-0.15
	c-0.02-0.03-0.04-0.06-0.11-0.14c-0.03-0.03-0.06-0.07-0.09-0.1c-0.04-0.04-0.08-0.07-0.16-0.14l-0.08-0.06
	c-0.05-0.03-0.1-0.06-0.2-0.11l-0.15-0.07l-0.25-0.07c-0.06-0.01-0.12-0.02-0.17-0.02c-0.05,0-0.1-0.01-0.16-0.01
	c-0.05,0-0.1,0-0.15,0.01c-0.06,0-0.12,0.01-0.18,0.03l-0.16,0.04l-0.16,0.06l-0.11,0.05c-0.06,0.03-0.12,0.06-0.17,0.1
	c-0.03,0.02-0.06,0.05-0.12,0.09c-0.04,0.03-0.08,0.07-0.13,0.11c-0.03,0.03-0.06,0.06-0.13,0.16l-0.06,0.08
	c-0.03,0.05-0.06,0.1-0.1,0.17l-0.09,0.18l-4.2,11.21c-3.46-1.34-6.49-2.86-9.01-4.53c3.86-3.89,5.44-7.84,6.05-9.96h3.49
	c0.91,0,1.66-0.74,1.66-1.66s-0.74-1.66-1.66-1.66H20.21v-3.6c0-0.91-0.74-1.66-1.66-1.66s-1.66,0.74-1.66,1.66v3.6H6.93
	c-0.91,0-1.66,0.74-1.66,1.66s0.74,1.66,1.66,1.66h16.54c-0.63,1.76-2.1,4.89-5.26,7.95c-3.72-3.13-4.49-5.6-4.49-5.62
	c-0.19-0.73-0.85-1.24-1.61-1.24c-0.13,0-0.26,0.02-0.39,0.05c-0.89,0.22-1.43,1.12-1.21,2.01c0.03,0.13,0.83,3.21,5.14,6.98
	c-2.52,1.85-5.5,3.36-8.87,4.49c-0.42,0.14-0.76,0.43-0.96,0.83c-0.2,0.4-0.23,0.85-0.09,1.27c0.23,0.68,0.86,1.13,1.57,1.13
	c0.18,0,0.36-0.03,0.52-0.09c4.03-1.34,7.57-3.2,10.52-5.53c2.87,2,6.36,3.8,10.4,5.36l-2.33,6.23c-0.32,0.86,0.12,1.81,0.97,2.13
	c0.19,0.07,0.38,0.1,0.58,0.1c0.69,0,1.31-0.43,1.55-1.08l1.47-3.93c0.08,0.01,0.15,0.02,0.22,0.02h9.13l1.47,3.92
	c0.24,0.64,0.86,1.08,1.55,1.08c0.2,0,0.39-0.04,0.58-0.1c0.41-0.16,0.74-0.46,0.93-0.87C45.04,40.15,45.06,39.7,44.9,39.28z
	 M32.22,33.22l3.44-9.17l3.44,9.17H32.22z"/>
</svg>
