<?xml version="1.0" encoding="utf-8"?>
<!-- Generator: Adobe Illustrator 24.0.2, SVG Export Plug-In . SVG Version: 6.00 Build 0)  -->
<svg version="1.1" id="Layer_1" xmlns="http://www.w3.org/2000/svg" xmlns:xlink="http://www.w3.org/1999/xlink" x="0px" y="0px"
	 viewBox="0 0 50 50" style="enable-background:new 0 0 50 50;" xml:space="preserve">
<style type="text/css">
	.st0{fill:#FFFFFF;}
	.st1{fill:#202020;}
</style>
<rect x="5.1" y="4.6" class="st0" width="23.2" height="29"/>
<polygon class="st0" points="45.3,37.6 37,45.9 21.9,45.9 21.5,17.6 44.8,17.6 "/>
<g>
	<rect x="4.9" y="4.4" class="st0" width="23.2" height="29"/>
	<polygon class="st0" points="45.1,37.4 36.9,45.6 21.7,45.6 21.3,17.4 44.6,17.4 	"/>
	<path class="st1" d="M7.9,15.9c-0.2,0.2-0.3,0.4-0.3,0.7s0.1,0.5,0.3,0.7c0.2,0.2,0.4,0.3,0.7,0.3c0.3,0,0.5-0.1,0.7-0.3
		s0.3-0.4,0.3-0.7c0-0.2-0.1-0.5-0.3-0.7C8.9,15.6,8.3,15.6,7.9,15.9z"/>
	<path class="st1" d="M7.9,11.9c-0.2,0.2-0.3,0.4-0.3,0.7s0.1,0.5,0.3,0.7c0.2,0.2,0.4,0.3,0.7,0.3c0.3,0,0.5-0.1,0.7-0.3
		s0.3-0.4,0.3-0.7c0-0.2-0.1-0.5-0.3-0.7C8.9,11.5,8.3,11.5,7.9,11.9z"/>
	<path class="st1" d="M7.9,7.7C7.7,7.9,7.6,8.1,7.6,8.4s0.1,0.5,0.3,0.7c0.2,0.2,0.4,0.3,0.7,0.3c0.3,0,0.5-0.1,0.7-0.3
		s0.3-0.4,0.3-0.7c0-0.2-0.1-0.5-0.3-0.7C8.9,7.3,8.3,7.3,7.9,7.7z"/>
	<path class="st1" d="M7.9,20.2c-0.2,0.2-0.3,0.4-0.3,0.7s0.1,0.5,0.3,0.7c0.2,0.2,0.4,0.3,0.7,0.3c0.3,0,0.5-0.1,0.7-0.3
		s0.3-0.4,0.3-0.7c0-0.2-0.1-0.5-0.3-0.7C8.9,19.8,8.3,19.8,7.9,20.2z"/>
	<path class="st1" d="M7.9,24.3c-0.2,0.2-0.3,0.4-0.3,0.7s0.1,0.5,0.3,0.7C8.1,26,8.3,26,8.6,26c0.3,0,0.5-0.1,0.7-0.3
		s0.3-0.4,0.3-0.7c0-0.2-0.1-0.5-0.3-0.7C8.9,24,8.3,24,7.9,24.3z"/>
	<path class="st1" d="M24.9,12.6c0-0.5-0.4-0.9-0.9-0.9H11.6c-0.5,0-0.9,0.4-0.9,0.9s0.4,0.9,0.9,0.9H24
		C24.5,13.5,24.9,13.1,24.9,12.6z"/>
	<path class="st1" d="M11.6,9.3H24c0.5,0,0.9-0.4,0.9-0.9S24.5,7.5,24,7.5H11.6c-0.5,0-0.9,0.4-0.9,0.9S11.1,9.3,11.6,9.3z"/>
	<path class="st1" d="M7.9,28.5c-0.2,0.2-0.3,0.4-0.3,0.7s0.1,0.5,0.3,0.7c0.2,0.2,0.4,0.3,0.7,0.3c0.3,0,0.5-0.1,0.7-0.3
		s0.3-0.4,0.3-0.7c0-0.2-0.1-0.5-0.3-0.7C8.9,28.2,8.3,28.2,7.9,28.5z"/>
	<path class="st1" d="M10.7,29.3c0,0.5,0.4,0.9,0.9,0.9h7.5v-1.9h-7.5C11.1,28.3,10.7,28.7,10.7,29.3z"/>
	<path class="st1" d="M10.7,25.1c0,0.5,0.4,0.9,0.9,0.9h7.5v-1.9h-7.5C11.1,24.1,10.7,24.6,10.7,25.1z"/>
	<path class="st1" d="M10.7,20.9c0,0.5,0.4,0.9,0.9,0.9h7.5V20h-7.5C11.1,20,10.7,20.4,10.7,20.9z"/>
	<path class="st1" d="M10.7,16.7c0,0.5,0.4,0.9,0.9,0.9h7.5c0-0.7,0.2-1.3,0.5-1.9h-7.9C11.1,15.8,10.7,16.2,10.7,16.7z"/>
	<path class="st1" d="M43.8,15.9H29.2V5.5c0-1.2-1-2.2-2.2-2.2H6.2C5,3.3,4,4.3,4,5.5v26.4c0,1.2,1,2.2,2.2,2.2h14.6v10.4
		c0,1.2,1,2.2,2.2,2.2h13.2c0.6,0,1.1-0.2,1.6-0.7l7.6-7.6c0.4-0.4,0.7-1,0.7-1.6V18.1C46,16.8,45,15.9,43.8,15.9z M20.8,18.1v14.2
		H6.2c-0.2,0-0.4-0.2-0.4-0.4V5.5c0-0.2,0.2-0.4,0.4-0.4H27c0.2,0,0.4,0.2,0.4,0.4v10.4H23C21.8,15.9,20.8,16.9,20.8,18.1z
		 M37.6,43.6v-5c0-0.1,0.1-0.2,0.2-0.2h5L37.6,43.6z M44.2,36.5h-6.3c-1.2,0-2.1,0.9-2.1,2.1v6.3H23c-0.2,0-0.4-0.2-0.4-0.4V18.1
		c0-0.2,0.2-0.4,0.4-0.4h20.8c0.2,0,0.4,0.2,0.4,0.4V36.5z"/>
	<path class="st1" d="M40.9,28.4H25.7c-0.5,0-0.9,0.4-0.9,0.9s0.4,0.9,0.9,0.9h15.2c0.5,0,0.9-0.4,0.9-0.9S41.4,28.4,40.9,28.4z"/>
	<path class="st1" d="M40.9,32.5H25.7c-0.5,0-0.9,0.4-0.9,0.9s0.4,0.9,0.9,0.9h15.2c0.5,0,0.9-0.4,0.9-0.9S41.4,32.5,40.9,32.5z"/>
	<path class="st1" d="M32.5,36.7h-6.9c-0.5,0-0.9,0.4-0.9,0.9s0.4,0.9,0.9,0.9h6.9c0.5,0,0.9-0.4,0.9-0.9S33,36.7,32.5,36.7z"/>
	<path class="st1" d="M40.9,24.2h-6.6c-0.5,0-0.9,0.4-0.9,0.9s0.4,0.9,0.9,0.9h6.6c0.5,0,0.9-0.4,0.9-0.9S41.4,24.2,40.9,24.2z"/>
	<path class="st1" d="M40.9,20h-6.6c-0.5,0-0.9,0.4-0.9,0.9s0.4,0.9,0.9,0.9h6.6c0.5,0,0.9-0.4,0.9-0.9S41.4,20,40.9,20z"/>
	<path class="st1" d="M32.5,40.9h-6.9c-0.5,0-0.9,0.4-0.9,0.9s0.4,0.9,0.9,0.9h6.9c0.5,0,0.9-0.4,0.9-0.9S33,40.9,32.5,40.9z"/>
	<path class="st1" d="M26.2,26h3.7c0.6,0,1.2-0.5,1.2-1.2v-3.7c0-0.7-0.5-1.2-1.2-1.2h-3.7c-0.7,0-1.2,0.5-1.2,1.2v3.7
		C25,25.5,25.6,26,26.2,26z"/>
</g>
</svg>
