<?xml version="1.0" encoding="utf-8"?>
<!-- Generator: Adobe Illustrator 24.0.2, SVG Export Plug-In . SVG Version: 6.00 Build 0)  -->
<svg version="1.1" id="Layer_1" xmlns="http://www.w3.org/2000/svg" xmlns:xlink="http://www.w3.org/1999/xlink" x="0px" y="0px"
	 viewBox="0 0 50 50" style="enable-background:new 0 0 50 50;" xml:space="preserve">
<style type="text/css">
	.st0{fill:#FFFFFF;}
	.st1{fill:#202020;}
</style>
<rect x="5" y="4.1" class="st0" width="23.2" height="29"/>
<polygon class="st0" points="45.2,37.2 37,45.4 21.8,45.4 21.5,17.1 44.7,17.1 "/>
<g>
	<path class="st1" d="M40.9,32.5H28.4c-0.5,0-0.9,0.4-0.9,0.9s0.4,0.9,0.9,0.9h12.4c0.5,0,0.9-0.4,0.9-0.9S41.4,32.5,40.9,32.5z"/>
	<path class="st1" d="M32.5,36.7h-4.1c-0.5,0-0.9,0.4-0.9,0.9s0.4,0.9,0.9,0.9h4.1c0.5,0,0.9-0.4,0.9-0.9S33,36.7,32.5,36.7z"/>
	<path class="st1" d="M32.5,40.9h-4.1c-0.5,0-0.9,0.4-0.9,0.9c0,0.5,0.4,0.9,0.9,0.9h4.1c0.5,0,0.9-0.4,0.9-0.9
		C33.4,41.3,33,40.9,32.5,40.9z"/>
	<path class="st1" d="M24.7,37c-0.2,0.2-0.3,0.4-0.3,0.7c0,0.3,0.1,0.5,0.3,0.7c0.2,0.2,0.4,0.3,0.7,0.3c0.3,0,0.5-0.1,0.7-0.3
		c0.2-0.2,0.3-0.4,0.3-0.7c0-0.2-0.1-0.5-0.3-0.7C25.7,36.6,25.1,36.6,24.7,37z"/>
	<path class="st1" d="M24.7,32.8c-0.2,0.2-0.3,0.4-0.3,0.7c0,0.2,0.1,0.5,0.3,0.7c0.2,0.2,0.4,0.3,0.7,0.3c0.3,0,0.5-0.1,0.7-0.3
		c0.2-0.2,0.3-0.4,0.3-0.7c0-0.2-0.1-0.5-0.3-0.7C25.7,32.5,25.1,32.5,24.7,32.8z"/>
	<path class="st1" d="M40.9,28.4H28.4c-0.5,0-0.9,0.4-0.9,0.9c0,0.5,0.4,0.9,0.9,0.9h12.4c0.5,0,0.9-0.4,0.9-0.9
		C41.8,28.8,41.4,28.4,40.9,28.4z"/>
	<path class="st1" d="M26.1,28.6c-0.3-0.3-1-0.3-1.3,0c-0.1,0.1-0.1,0.2-0.2,0.3c-0.1,0.1-0.1,0.2-0.1,0.4s0,0.2,0.1,0.4
		c0,0.1,0.1,0.2,0.2,0.3c0.2,0.2,0.4,0.3,0.7,0.3c0.3,0,0.5-0.1,0.7-0.3c0.1-0.1,0.1-0.2,0.2-0.3c0-0.1,0.1-0.2,0.1-0.4
		s0-0.2-0.1-0.4C26.2,28.8,26.1,28.7,26.1,28.6z"/>
	<path class="st1" d="M40.9,24.2H28.4c-0.5,0-0.9,0.4-0.9,0.9c0,0.5,0.4,0.9,0.9,0.9h12.4c0.5,0,0.9-0.4,0.9-0.9
		C41.8,24.6,41.4,24.2,40.9,24.2z"/>
	<path class="st1" d="M26.2,24.8c0-0.1,0-0.1-0.1-0.2c0,0-0.1-0.1-0.1-0.1c-0.3-0.3-1-0.3-1.3,0c0,0-0.1,0.1-0.1,0.1
		c0,0.1-0.1,0.1-0.1,0.2c0,0.1,0,0.1-0.1,0.2c0,0.1,0,0.1,0,0.2c0,0.2,0.1,0.5,0.3,0.7c0.2,0.2,0.4,0.3,0.7,0.3
		c0.2,0,0.5-0.1,0.7-0.3c0.1-0.1,0.1-0.2,0.2-0.3c0-0.1,0.1-0.2,0.1-0.4c0-0.1,0-0.1,0-0.2C26.3,24.9,26.3,24.8,26.2,24.8z"/>
	<path class="st1" d="M40.9,20H28.4c-0.5,0-0.9,0.4-0.9,0.9s0.4,0.9,0.9,0.9h12.4c0.5,0,0.9-0.4,0.9-0.9S41.4,20,40.9,20z"/>
	<path class="st1" d="M26.2,20.6c0-0.1,0-0.1-0.1-0.2c0,0-0.1-0.1-0.1-0.1c-0.3-0.3-1-0.3-1.3,0c0,0-0.1,0.1-0.1,0.1
		c0,0.1-0.1,0.1-0.1,0.2c0,0.1,0,0.1-0.1,0.2c0,0.1,0,0.1,0,0.2c0,0.1,0,0.1,0,0.2c0,0.1,0,0.1,0.1,0.2c0,0.1,0,0.1,0.1,0.2
		c0,0.1,0.1,0.1,0.1,0.1c0.2,0.2,0.4,0.3,0.7,0.3c0.2,0,0.5-0.1,0.7-0.3c0,0,0.1-0.1,0.1-0.1c0,0,0.1-0.1,0.1-0.2
		c0-0.1,0-0.1,0.1-0.2c0-0.1,0-0.1,0-0.2c0-0.1,0-0.1,0-0.2C26.3,20.7,26.3,20.6,26.2,20.6z"/>
	<path class="st1" d="M24.7,41.2c-0.2,0.2-0.3,0.4-0.3,0.7c0,0.3,0.1,0.5,0.3,0.7c0.2,0.2,0.4,0.3,0.7,0.3c0.3,0,0.5-0.1,0.7-0.3
		c0.2-0.2,0.3-0.4,0.3-0.7c0-0.2-0.1-0.5-0.3-0.7C25.7,40.8,25.1,40.8,24.7,41.2z"/>
	<path class="st1" d="M24.9,12.5c0-0.5-0.4-0.9-0.9-0.9H11.6c-0.5,0-0.9,0.4-0.9,0.9s0.4,0.9,0.9,0.9H24
		C24.5,13.4,24.9,13,24.9,12.5z"/>
	<path class="st1" d="M11.6,9.2H24c0.5,0,0.9-0.4,0.9-0.9S24.5,7.4,24,7.4H11.6c-0.5,0-0.9,0.4-0.9,0.9S11.1,9.2,11.6,9.2z"/>
	<path class="st1" d="M10.7,29.2c0,0.5,0.4,0.9,0.9,0.9h7.5v-1.9h-7.5C11.1,28.2,10.7,28.6,10.7,29.2z"/>
	<path class="st1" d="M10.7,25c0,0.5,0.4,0.9,0.9,0.9h7.5V24h-7.5C11.1,24,10.7,24.5,10.7,25z"/>
	<path class="st1" d="M10.7,20.8c0,0.5,0.4,0.9,0.9,0.9h7.5v-1.8h-7.5C11.1,19.9,10.7,20.3,10.7,20.8z"/>
	<path class="st1" d="M10.7,16.6c0,0.5,0.4,0.9,0.9,0.9h7.5c0-0.7,0.2-1.3,0.5-1.9h-7.9C11.1,15.7,10.7,16.1,10.7,16.6z"/>
	<path class="st1" d="M43.8,15.8H29.2V5.4c0-1.2-1-2.2-2.2-2.2H6.2C5,3.2,4,4.2,4,5.4v26.4C4,33,5,34,6.2,34h14.6v10.4
		c0,1.2,1,2.2,2.2,2.2h13.2c0.6,0,1.1-0.2,1.6-0.7l7.6-7.6c0.4-0.4,0.7-1,0.7-1.6V18C46,16.7,45,15.8,43.8,15.8z M20.8,18v14.2H6.2
		c-0.2,0-0.4-0.2-0.4-0.4V5.4C5.8,5.2,6,5,6.2,5H27c0.2,0,0.4,0.2,0.4,0.4v10.4H23C21.8,15.8,20.8,16.8,20.8,18z M37.6,43.5v-5
		c0-0.1,0.1-0.2,0.2-0.2h5L37.6,43.5z M44.2,36.4h-6.3c-1.2,0-2.1,0.9-2.1,2.1v6.3H23c-0.2,0-0.4-0.2-0.4-0.4V18
		c0-0.2,0.2-0.4,0.4-0.4h20.8c0.2,0,0.4,0.2,0.4,0.4V36.4z"/>
	<path class="st1" d="M7.9,24.3c-0.2,0.2-0.3,0.4-0.3,0.7c0,0.3,0.1,0.5,0.3,0.7c0.2,0.2,0.4,0.3,0.7,0.3c0.3,0,0.5-0.1,0.7-0.3
		c0.2-0.2,0.3-0.4,0.3-0.7c0-0.2-0.1-0.5-0.3-0.7C8.9,23.9,8.3,23.9,7.9,24.3z"/>
	<path class="st1" d="M7.9,20.2c-0.2,0.2-0.3,0.4-0.3,0.7c0,0.2,0.1,0.5,0.3,0.7c0.2,0.2,0.4,0.3,0.7,0.3c0.3,0,0.5-0.1,0.7-0.3
		c0.2-0.2,0.3-0.4,0.3-0.7c0-0.2-0.1-0.5-0.3-0.7C8.9,19.8,8.3,19.8,7.9,20.2z"/>
	<path class="st1" d="M9.2,15.9c-0.3-0.3-1-0.3-1.3,0c-0.1,0.1-0.1,0.2-0.2,0.3c-0.1,0.1-0.1,0.2-0.1,0.4s0,0.2,0.1,0.4
		c0,0.1,0.1,0.2,0.2,0.3c0.2,0.2,0.4,0.3,0.7,0.3c0.3,0,0.5-0.1,0.7-0.3c0.1-0.1,0.1-0.2,0.2-0.3c0-0.1,0.1-0.2,0.1-0.4
		s0-0.2-0.1-0.4C9.4,16.1,9.3,16,9.2,15.9z"/>
	<path class="st1" d="M9.4,12.2c0-0.1,0-0.1-0.1-0.2c0,0-0.1-0.1-0.1-0.1c-0.3-0.3-1-0.3-1.3,0c0,0-0.1,0.1-0.1,0.1
		c0,0.1-0.1,0.1-0.1,0.2c0,0.1,0,0.1-0.1,0.2c0,0.1,0,0.1,0,0.2c0,0.2,0.1,0.5,0.3,0.7c0.2,0.2,0.4,0.3,0.7,0.3
		c0.2,0,0.5-0.1,0.7-0.3c0.1-0.1,0.1-0.2,0.2-0.3c0-0.1,0.1-0.2,0.1-0.4c0-0.1,0-0.1,0-0.2C9.5,12.3,9.5,12.2,9.4,12.2z"/>
	<path class="st1" d="M9.4,8c0-0.1,0-0.1-0.1-0.2c0,0-0.1-0.1-0.1-0.1c-0.3-0.3-1-0.3-1.3,0c0,0-0.1,0.1-0.1,0.1
		c0,0.1-0.1,0.1-0.1,0.2c0,0.1,0,0.1-0.1,0.2c0,0.1,0,0.1,0,0.2c0,0.1,0,0.1,0,0.2c0,0.1,0,0.1,0.1,0.2c0,0.1,0,0.1,0.1,0.2
		c0,0.1,0.1,0.1,0.1,0.1c0.2,0.2,0.4,0.3,0.7,0.3c0.2,0,0.5-0.1,0.7-0.3c0,0,0.1-0.1,0.1-0.1c0,0,0.1-0.1,0.1-0.2
		c0-0.1,0-0.1,0.1-0.2c0-0.1,0-0.1,0-0.2c0-0.1,0-0.1,0-0.2C9.5,8.1,9.5,8,9.4,8z"/>
	<path class="st1" d="M7.9,28.5c-0.2,0.2-0.3,0.4-0.3,0.7c0,0.3,0.1,0.5,0.3,0.7c0.2,0.2,0.4,0.3,0.7,0.3c0.3,0,0.5-0.1,0.7-0.3
		c0.2-0.2,0.3-0.4,0.3-0.7c0-0.2-0.1-0.5-0.3-0.7C8.9,28.2,8.3,28.2,7.9,28.5z"/>
</g>
</svg>
