<?xml version="1.0" encoding="utf-8"?>
<!-- Generator: Adobe Illustrator 24.1.1, SVG Export Plug-In . SVG Version: 6.00 Build 0)  -->
<svg version="1.1" id="Layer_1" xmlns="http://www.w3.org/2000/svg" xmlns:xlink="http://www.w3.org/1999/xlink" x="0px" y="0px"
	 viewBox="0 0 50 50" style="enable-background:new 0 0 50 50;" xml:space="preserve">
<style type="text/css">
	.st0{fill:#212121;}
</style>
<g>
	<path class="st0" d="M41.5,36.9h-2V14.2h2c0.8,0,1.5-0.7,1.5-1.5s-0.7-1.5-1.5-1.5h-6.9c-0.8,0-1.5,0.7-1.5,1.5s0.7,1.5,1.5,1.5h2
		v22.7h-2c-0.8,0-1.5,0.7-1.5,1.5s0.7,1.5,1.5,1.5h6.9c0.8,0,1.5-0.7,1.5-1.5S42.3,36.9,41.5,36.9z"/>
	<path class="st0" d="M26.2,36.9H8c-0.8,0-1.5,0.7-1.5,1.5s0.7,1.5,1.5,1.5h18.2c0.8,0,1.5-0.7,1.5-1.5S27,36.9,26.2,36.9z"/>
</g>
</svg>
