<?xml version="1.0" encoding="utf-8"?>
<!-- Generator: Adobe Illustrator 24.1.1, SVG Export Plug-In . SVG Version: 6.00 Build 0)  -->
<svg version="1.1" id="Layer_1" xmlns="http://www.w3.org/2000/svg" xmlns:xlink="http://www.w3.org/1999/xlink" x="0px" y="0px"
	 viewBox="0 0 50 50" style="enable-background:new 0 0 50 50;" xml:space="preserve">
<style type="text/css">
	.st0{fill:#212121;}
</style>
<g>
	<path class="st0" d="M40.9,37.2l-2.3-21.4c-0.2-2-1.9-3.4-3.8-3.4h-3.3v-1.2c0-3.6-2.9-6.5-6.5-6.5c-3.6,0-6.5,2.9-6.5,6.5v1.2H15
		c-2,0-3.6,1.5-3.8,3.4L8.8,37.2c-0.2,1.9,0.4,3.8,1.7,5.3c1.3,1.4,3.1,2.2,5,2.2h18.6c1.9,0,3.8-0.8,5-2.2
		C40.5,41,41.1,39.1,40.9,37.2z M21.3,11.2c0-2,1.6-3.5,3.5-3.5c2,0,3.5,1.6,3.5,3.5v1.2h-7.1V11.2z M36.9,40.5
		c-0.7,0.8-1.7,1.3-2.8,1.3H15.5c-1.1,0-2.1-0.4-2.8-1.3c-0.7-0.8-1.1-1.8-0.9-2.9l2.3-21.4c0-0.4,0.4-0.8,0.9-0.8h3.3v2.8
		c0,0.8,0.7,1.5,1.5,1.5s1.5-0.7,1.5-1.5v-2.8h7.1v2.8c0,0.8,0.7,1.5,1.5,1.5s1.5-0.7,1.5-1.5v-2.8h3.3c0.4,0,0.8,0.3,0.9,0.8
		l2.3,21.4C38,38.6,37.7,39.7,36.9,40.5z"/>
	<path class="st0" d="M30.3,24.6l-8.1,8.1l-2.8-2.8c-0.6-0.6-1.5-0.6-2.1,0c-0.6,0.6-0.6,1.5,0,2.1l3.9,3.9c0.3,0.3,0.7,0.4,1.1,0.4
		s0.8-0.1,1.1-0.4l9.1-9.1c0.6-0.6,0.6-1.5,0-2.1C31.8,24,30.9,24,30.3,24.6z"/>
</g>
</svg>
