<?xml version="1.0" encoding="utf-8"?>
<!-- Generator: Adobe Illustrator 24.1.1, SVG Export Plug-In . SVG Version: 6.00 Build 0)  -->
<svg version="1.1" id="Layer_1" xmlns="http://www.w3.org/2000/svg" xmlns:xlink="http://www.w3.org/1999/xlink" x="0px" y="0px"
	 viewBox="0 0 50 50" style="enable-background:new 0 0 50 50;" xml:space="preserve">
<style type="text/css">
	.st0{fill:#A7A7A7;}
</style>
<g>
	<path class="st0" d="M45.9,24.3c-0.2-0.3-4.1-7.1-14.3-9.3L31,17.9c7.1,1.5,10.6,5.4,11.8,7.1c-1.3,1.8-5.2,6.2-13.4,7.5
		c2.5-1.5,4.3-4.3,4.3-7.4c0-2.5-1.1-4.8-2.8-6.4l-0.8,3.9c0.4,0.8,0.6,1.6,0.6,2.5c0,1.7-0.7,3.2-1.9,4.2l-1.3,6.4
		c13.3-1,18.2-9.6,18.4-10C46,25.3,46,24.7,45.9,24.3z"/>
	<path class="st0" d="M19.1,32.2C12,30.7,8.4,26.7,7.2,25c1.3-1.7,5.3-6.2,13.4-7.4c-2.5,1.5-4.3,4.3-4.3,7.4c0,2.6,1.1,4.9,2.9,6.4
		l0.7-3.8c-0.4-0.8-0.7-1.7-0.7-2.7c0-1.7,0.8-3.3,2-4.3l1.2-6.3c-13.3,1-18.1,9.6-18.3,10c-0.2,0.5-0.2,1,0,1.4
		c0.2,0.3,4.2,7.2,14.4,9.4L19.1,32.2z"/>
</g>
<g>
	<path class="st0" d="M22.1,41c-0.1,0-0.2,0-0.3,0c-0.8-0.2-1.3-0.9-1.2-1.8l5.7-29c0.2-0.8,1-1.3,1.8-1.2c0.8,0.2,1.3,0.9,1.2,1.8
		l-5.7,29C23.4,40.5,22.8,41,22.1,41z"/>
</g>
</svg>
