<?xml version="1.0" encoding="utf-8"?>
<!-- Generator: Adobe Illustrator 24.1.1, SVG Export Plug-In . SVG Version: 6.00 Build 0)  -->
<svg version="1.1" id="Layer_1" xmlns="http://www.w3.org/2000/svg" xmlns:xlink="http://www.w3.org/1999/xlink" x="0px" y="0px"
	 viewBox="0 0 50 50" style="enable-background:new 0 0 50 50;" xml:space="preserve">
<style type="text/css">
	.st0{fill:#A7A7A7;}
</style>
<path class="st0" d="M45.9,24.3c-0.2-0.4-5.7-10-20.9-10s-20.6,9.6-20.8,10c-0.2,0.5-0.2,1,0,1.4c0.2,0.4,5.7,10.1,20.9,10.1
	s20.6-9.7,20.8-10.1C46,25.3,46,24.7,45.9,24.3z M24.9,30.7c-3.1,0-5.6-2.5-5.6-5.6s2.5-5.6,5.6-5.6s5.6,2.5,5.6,5.6
	C30.6,28.2,28,30.7,24.9,30.7z M7.2,25c1.3-1.7,5.3-6.2,13.4-7.4c-2.5,1.5-4.3,4.3-4.3,7.4s1.7,5.9,4.2,7.4
	C12.4,31.2,8.5,26.8,7.2,25z M29.3,32.5c2.5-1.5,4.3-4.3,4.3-7.4s-1.7-5.9-4.2-7.4c8.1,1.2,12.1,5.6,13.4,7.4
	C41.5,26.8,37.5,31.3,29.3,32.5z"/>
</svg>
