<?xml version="1.0" encoding="utf-8"?>
<!-- Generator: Adobe Illustrator 24.1.2, SVG Export Plug-In . SVG Version: 6.00 Build 0)  -->
<svg version="1.1" id="Layer_1" xmlns="http://www.w3.org/2000/svg" xmlns:xlink="http://www.w3.org/1999/xlink" x="0px" y="0px"
	 viewBox="0 0 50 50" style="enable-background:new 0 0 50 50;" xml:space="preserve">
<style type="text/css">
	.st0{fill:#212121;}
</style>
<g>
	<g>
		<path class="st0" d="M40.3,19.7l-0.6,0l-17-12.3c-0.6-0.4-1.2-0.6-1.9-0.6c-1,0-2,0.5-2.6,1.3l-3.1,4.2L14.4,12
			c-0.3-0.1-0.7-0.2-1-0.2c-1.4,0-2.6,0.9-3.1,2.2l-1.9,5.6c-1.5,0.3-2.5,1.6-2.5,3.2v15c0,1.8,1.5,3.2,3.2,3.2h31.2
			c1.8,0,3.2-1.5,3.2-3.2v-15C43.6,21.1,42.1,19.7,40.3,19.7z M18,13.3l2.5-3.5c0-0.1,0.1-0.1,0.2-0.1c0.1,0,0.1,0,0.1,0L32.2,18
			L18,13.3z M13.1,15c0-0.1,0.1-0.2,0.2-0.2l0.1,0l14.2,4.8H11.6L13.1,15z M8.8,22.9c0-0.1,0.1-0.3,0.3-0.3h31.2
			c0.1,0,0.3,0.1,0.3,0.3v15c0,0.1-0.1,0.3-0.3,0.3H9.1c-0.1,0-0.3-0.1-0.3-0.3V22.9z"/>
		<path class="st0" d="M24.2,36.6c3.4,0,6.2-2.8,6.2-6.2s-2.8-6.2-6.2-6.2c-3.4,0-6.2,2.8-6.2,6.2S20.8,36.6,24.2,36.6z M24.2,27.1
			c1.8,0,3.3,1.5,3.3,3.3s-1.5,3.3-3.3,3.3s-3.3-1.5-3.3-3.3S22.4,27.1,24.2,27.1z"/>
	</g>
	<path class="st0" d="M24.2,24.3c-3.4,0-6.1,2.7-6.1,6.1c0,3.4,2.7,6.1,6.1,6.1c3.4,0,6.1-2.7,6.1-6.1C30.3,27,27.6,24.3,24.2,24.3z
		 M24.2,33.8c-1.9,0-3.4-1.5-3.4-3.4s1.5-3.4,3.4-3.4s3.4,1.5,3.4,3.4S26.1,33.8,24.2,33.8z"/>
</g>
</svg>
