<?xml version="1.0" encoding="utf-8"?>
<!-- Generator: Adobe Illustrator 24.1.1, SVG Export Plug-In . SVG Version: 6.00 Build 0)  -->
<svg version="1.1" id="Layer_1" xmlns="http://www.w3.org/2000/svg" xmlns:xlink="http://www.w3.org/1999/xlink" x="0px" y="0px"
	 viewBox="0 0 50 50" style="enable-background:new 0 0 50 50;" xml:space="preserve">
<style type="text/css">
	.st0{fill:#212121;}
</style>
<path class="st0" d="M31.4,26.6c2.7-2,4.4-5.1,4.4-8.7c0-6-4.9-10.9-10.9-10.9c-6,0-10.9,4.9-10.9,10.9c0,3.6,1.7,6.7,4.4,8.7
	C12.9,29.1,9,34.7,9,41.3c0,1,0.8,1.8,1.8,1.8h28.5c1,0,1.8-0.8,1.8-1.8C41,34.7,37.1,29.1,31.4,26.6z M17.6,17.9
	c0-4.1,3.3-7.4,7.4-7.4s7.4,3.3,7.4,7.4s-3.3,7.4-7.4,7.4S17.6,22,17.6,17.9z M12.6,39.5c0.9-6.1,6.1-10.7,12.4-10.7
	s11.5,4.7,12.4,10.7H12.6z"/>
</svg>
