<?xml version="1.0" encoding="utf-8"?>
<!-- Generator: Adobe Illustrator 24.1.1, SVG Export Plug-In . SVG Version: 6.00 Build 0)  -->
<svg version="1.1" id="Layer_1" xmlns="http://www.w3.org/2000/svg" xmlns:xlink="http://www.w3.org/1999/xlink" x="0px" y="0px"
	 viewBox="0 0 50 50" style="enable-background:new 0 0 50 50;" xml:space="preserve">
<style type="text/css">
	.st0{fill:#FFEB3B;}
</style>
<path class="st0" d="M25.2,6C14.6,6,5.9,14.6,5.9,25.3s8.6,19.3,19.3,19.3s19.3-8.6,19.3-19.3S35.9,6,25.2,6z M24.5,36.8
	c-1.3,0-2.4-1.1-2.4-2.4c0-1.3,1.1-2.4,2.4-2.4c1.3,0,2.4,1.1,2.4,2.4C27,35.7,25.9,36.8,24.5,36.8z M28.1,24.6
	c-1.7,1.3-1.8,2.3-1.8,3.9c0,0.6-0.3,1.3-1.8,1.3c-1.3,0-1.7-0.5-1.7-2.1c0-2.7,1.2-4,2.1-4.8c1-0.9,2.8-1.8,2.8-3.5
	c0-1.4-1.3-2.1-2.8-2.1c-3.2,0-2.5,2.4-4.2,2.4c-0.8,0-1.9-0.6-1.9-1.8c0-1.7,1.9-4.2,6.2-4.2c4,0,6.7,2.2,6.7,5.2S29,24,28.1,24.6z
	"/>
</svg>
