<?xml version="1.0" encoding="utf-8"?>
<!-- Generator: Adobe Illustrator 24.0.2, SVG Export Plug-In . SVG Version: 6.00 Build 0)  -->
<svg version="1.1" id="Layer_1" xmlns="http://www.w3.org/2000/svg" xmlns:xlink="http://www.w3.org/1999/xlink" x="0px" y="0px"
	 viewBox="0 0 50 50" style="enable-background:new 0 0 50 50;" xml:space="preserve">
<style type="text/css">
	.st0{fill:#202020;}
</style>
<path class="st0" d="M36.5,38.5c-0.4,0-0.8-0.2-1.1-0.5L25,27.6L14.6,38c-0.3,0.3-0.7,0.5-1.1,0.5s-0.8-0.2-1.1-0.5
	c-0.6-0.6-0.6-1.6,0-2.3l10.4-10.4L12.4,15c-0.3-0.3-0.5-0.7-0.5-1.1s0.2-0.8,0.5-1.1s0.7-0.5,1.1-0.5s0.8,0.2,1.1,0.5L25,23.1
	l10.4-10.4c0.3-0.3,0.7-0.5,1.1-0.5s0.8,0.2,1.1,0.5c0.3,0.3,0.5,0.7,0.5,1.1S38,14.7,37.7,15L27.3,25.4l10.4,10.4
	c0.6,0.6,0.6,1.6,0,2.3C37.4,38.3,37,38.5,36.5,38.5z"/>
<path class="st0" d="M27.1,25.4l10.5-10.4c0.6-0.6,0.6-1.5,0-2.1c-0.6-0.6-1.5-0.6-2.1,0L25,23.3L14.6,12.8c-0.6-0.6-1.5-0.6-2.1,0
	c-0.6,0.6-0.6,1.5,0,2.1l10.5,10.4L12.5,35.8c-0.6,0.6-0.6,1.5,0,2.1c0.3,0.3,0.7,0.4,1.1,0.4s0.8-0.1,1.1-0.4L25,27.5L35.5,38
	c0.3,0.3,0.7,0.4,1.1,0.4s0.8-0.1,1.1-0.4c0.6-0.6,0.6-1.5,0-2.1L27.1,25.4z"/>
</svg>
