<?xml version="1.0" encoding="utf-8"?>
<!-- Generator: Adobe Illustrator 24.1.1, SVG Export Plug-In . SVG Version: 6.00 Build 0)  -->
<svg version="1.1" id="Layer_1" xmlns="http://www.w3.org/2000/svg" xmlns:xlink="http://www.w3.org/1999/xlink" x="0px" y="0px"
	 viewBox="0 0 50 50" style="enable-background:new 0 0 50 50;" xml:space="preserve">
<style type="text/css">
	.st0{fill:#FFEB3B;}
	.st1{fill:#212121;}
</style>
<rect x="10.7" y="8.3" class="st0" width="29.2" height="34"/>
<g>
	<path class="st1" d="M38.2,44.5H11.8c-1.7,0-3.1-1.4-3.1-3.1V9.7c0-1.7,1.4-3.1,3.1-3.1h26.4c1.7,0,3.1,1.4,3.1,3.1v31.6
		C41.3,43.1,39.9,44.5,38.2,44.5z M11.8,9.5c-0.1,0-0.1,0.1-0.1,0.1v31.6c0,0.1,0.1,0.1,0.1,0.1h26.4c0.1,0,0.1-0.1,0.1-0.1V9.7
		c0-0.1-0.1-0.1-0.1-0.1L11.8,9.5L11.8,9.5z"/>
</g>
<g>
	<path class="st1" d="M33.5,23h-17c-0.8,0-1.5-0.7-1.5-1.5s0.7-1.5,1.5-1.5h17c0.8,0,1.5,0.7,1.5,1.5S34.3,23,33.5,23z"/>
</g>
<g>
	<path class="st1" d="M26.5,15.8h-10c-0.8,0-1.5-0.7-1.5-1.5s0.7-1.5,1.5-1.5h10c0.8,0,1.5,0.7,1.5,1.5S27.3,15.8,26.5,15.8z"/>
</g>
<g>
	<path class="st1" d="M33.5,30.2h-17c-0.8,0-1.5-0.7-1.5-1.5s0.7-1.5,1.5-1.5h17c0.8,0,1.5,0.7,1.5,1.5S34.3,30.2,33.5,30.2z"/>
</g>
<g>
	<path class="st1" d="M33.5,37.4h-17c-0.8,0-1.5-0.7-1.5-1.5s0.7-1.5,1.5-1.5h17c0.8,0,1.5,0.7,1.5,1.5S34.3,37.4,33.5,37.4z"/>
</g>
</svg>
