<?xml version="1.0" encoding="utf-8"?>
<!-- Generator: Adobe Illustrator 24.1.1, SVG Export Plug-In . SVG Version: 6.00 Build 0)  -->
<svg version="1.1" id="Layer_1" xmlns="http://www.w3.org/2000/svg" xmlns:xlink="http://www.w3.org/1999/xlink" x="0px" y="0px"
	 viewBox="0 0 50 50" style="enable-background:new 0 0 50 50;" xml:space="preserve">
<style type="text/css">
	.st0{fill:#FFEB3B;}
	.st1{fill:#212121;}
</style>
<polyline class="st0" points="18.3,42.6 25,39.4 31.7,43 31.7,31.8 18.8,31.8 18.3,43 "/>
<circle class="st0" cx="24.9" cy="20.3" r="13.4"/>
<path class="st1" d="M39.4,20.3c0-8-6.5-14.4-14.4-14.4c-8,0-14.4,6.5-14.4,14.4c0,4.7,2.3,8.9,5.8,11.6L16.5,43
	c0,0.5,0.3,1,0.8,1.3s1,0.3,1.5,0l6.3-3.6l6.3,3.6c0.2,0.1,0.5,0.2,0.7,0.2c0.3,0,0.5-0.1,0.8-0.2c0.5-0.3,0.7-0.8,0.7-1.3V32
	C37.1,29.3,39.4,25.1,39.4,20.3z M13.6,20.3C13.6,14,18.7,8.9,25,8.9S36.4,14,36.4,20.3S31.3,31.8,25,31.8S13.6,26.6,13.6,20.3z
	 M30.5,40.4l-4.8-2.7c-0.5-0.3-1-0.3-1.5,0l-4.8,2.7l-0.1-6.7c1.7,0.7,3.6,1.1,5.6,1.1c1.9,0,3.8-0.4,5.5-1.1L30.5,40.4L30.5,40.4z"
	/>
</svg>
