<?xml version="1.0" encoding="utf-8"?>
<!-- Generator: Adobe Illustrator 24.1.1, SVG Export Plug-In . SVG Version: 6.00 Build 0)  -->
<svg version="1.1" id="Layer_1" xmlns="http://www.w3.org/2000/svg" xmlns:xlink="http://www.w3.org/1999/xlink" x="0px" y="0px"
	 viewBox="0 0 50 50" style="enable-background:new 0 0 50 50;" xml:space="preserve">
<style type="text/css">
	.st0{fill:#212121;}
</style>
<path class="st0" d="M39.4,20.3c0-8-6.5-14.4-14.4-14.4c-8,0-14.4,6.5-14.4,14.4c0,4.7,2.3,8.9,5.8,11.6L16.5,43
	c0,0.5,0.3,1,0.8,1.3c0.5,0.3,1,0.3,1.5,0l6.3-3.6l6.3,3.6c0.2,0.1,0.5,0.2,0.7,0.2c0.3,0,0.5-0.1,0.8-0.2c0.5-0.3,0.7-0.8,0.7-1.3
	V32C37.1,29.3,39.4,25.1,39.4,20.3z M13.6,20.3C13.6,14,18.7,8.9,25,8.9c6.3,0,11.4,5.1,11.4,11.4S31.3,31.8,25,31.8
	C18.7,31.8,13.6,26.6,13.6,20.3z M30.5,40.4l-4.8-2.7c-0.5-0.3-1-0.3-1.5,0l-4.8,2.7l-0.1-6.7c1.7,0.7,3.6,1.1,5.6,1.1
	c1.9,0,3.8-0.4,5.5-1.1V40.4z"/>
</svg>
