<?xml version="1.0" encoding="utf-8"?>
<!-- Generator: Adobe Illustrator 24.1.1, SVG Export Plug-In . SVG Version: 6.00 Build 0)  -->
<svg version="1.1" id="Layer_1" xmlns="http://www.w3.org/2000/svg" xmlns:xlink="http://www.w3.org/1999/xlink" x="0px" y="0px"
	 viewBox="0 0 50 50" style="enable-background:new 0 0 50 50;" xml:space="preserve">
<style type="text/css">
	.st0{fill:#212121;}
</style>
<g>
	<path class="st0" d="M36.9,18.8h-1.8v-3.4c0-5.6-4.6-10.2-10.2-10.2c-5.6,0-10.2,4.6-10.2,10.2v3.4h-1.8c-2.2,0-4,1.8-4,4v15.9
		c0,3.3,2.7,6,6,6H35c3.3,0,6-2.7,6-6V22.9C41,20.6,39.2,18.8,36.9,18.8z M17.6,15.5c0-4,3.2-7.2,7.2-7.2c4,0,7.2,3.2,7.2,7.2v3.4
		H17.6V15.5z M38,38.7c0,1.6-1.3,3-3,3H14.8c-1.6,0-3-1.3-3-3V22.9c0-0.6,0.5-1,1-1h24.1c0.6,0,1,0.5,1,1V38.7z"/>
	<g>
		<path class="st0" d="M28.1,38.6h-6.2c-0.4,0-0.8-0.2-1-0.5c-0.2-0.3-0.3-0.7-0.3-1.1l0.8-3.8c-0.9-0.9-1.4-2.1-1.4-3.4
			c0-2.7,2.2-4.9,4.9-4.9c2.7,0,4.9,2.2,4.9,4.9c0,1.3-0.5,2.5-1.4,3.4l0.8,3.8c0.1,0.4,0,0.8-0.3,1.1S28.5,38.6,28.1,38.6z
			 M23.6,36h2.9l-0.7-3c-0.1-0.5,0.1-1,0.5-1.3c0.6-0.4,1-1.1,1-1.8c0-1.3-1-2.3-2.3-2.3c-1.3,0-2.3,1-2.3,2.3c0,0.7,0.3,1.4,1,1.8
			c0.4,0.3,0.6,0.8,0.5,1.3L23.6,36z"/>
	</g>
</g>
</svg>
