<?xml version="1.0" encoding="utf-8"?>
<!-- Generator: Adobe Illustrator 24.1.2, SVG Export Plug-In . SVG Version: 6.00 Build 0)  -->
<svg version="1.1" id="Layer_1" xmlns="http://www.w3.org/2000/svg" xmlns:xlink="http://www.w3.org/1999/xlink" x="0px" y="0px"
	 viewBox="0 0 50 50" style="enable-background:new 0 0 50 50;" xml:space="preserve">
<style type="text/css">
	.st0{fill:#FFEB3B;}
	.st1{fill:#212121;}
</style>
<path class="st0" d="M24.5,43c-1.8,0-3.2-1.4-3.2-3.2v-1.8h-4.6c-2.3,0-4.2-1.9-4.2-4.2c0-0.7,0.2-1.3,0.5-2l1.1-2.1h-2.4
	c-2.3,0-4.2-1.9-4.2-4.2s1.9-4.2,4.2-4.2h2.4L13,19.2c-0.3-0.6-0.5-1.3-0.5-2c0-2.3,1.9-4.2,4.2-4.2h2.6v-1.8c0-1.8,1.4-3.2,3.2-3.2
	h5.1c1.8,0,3.2,1.4,3.2,3.2v1.8h2.6c2.3,0,4.2,1.9,4.2,4.2c0,0.7-0.2,1.3-0.5,2L36,21.3h2.4c2.3,0,4.2,1.9,4.2,4.2s-1.9,4.2-4.2,4.2
	H36l1.1,2.1c0.3,0.6,0.5,1.3,0.5,2c0,2.3-1.9,4.2-4.2,4.2h-4.6v1.8c0,1.8-1.4,3.2-3.2,3.2H24.5z"/>
<path class="st1" d="M44,25.5c0-3.1-2.5-5.6-5.6-5.6h0c0.4-0.8,0.7-1.7,0.7-2.6c0-3.1-2.5-5.6-5.6-5.6h-1.2v-0.4
	c0-2.5-2.1-4.6-4.6-4.6h-5.1c-2.5,0-4.6,2.1-4.6,4.6v0.4h-1.2c-3.1,0-5.6,2.5-5.6,5.6c0,0.9,0.2,1.8,0.7,2.6h0
	c-3.1,0-5.6,2.5-5.6,5.6c0,3.1,2.5,5.6,5.6,5.6h0c-0.4,0.8-0.7,1.7-0.7,2.6c0,3.1,2.5,5.6,5.6,5.6h3.2v0.4c0,2.5,2.1,4.6,4.6,4.6
	h1.1c2.5,0,4.6-2.1,4.6-4.6v-0.4h3.2c3.1,0,5.6-2.5,5.6-5.6c0-0.9-0.2-1.8-0.7-2.6h0C41.5,31.1,44,28.6,44,25.5z M20.9,11.2
	c0-0.9,0.7-1.6,1.6-1.6h5.1c0.9,0,1.6,0.7,1.6,1.6v0.4h-8.3V11.2z M14.1,17.3c0-1.4,1.2-2.6,2.6-2.6h1.2h14.3h1.2
	c1.4,0,2.6,1.2,2.6,2.6c0,1.4-1.2,2.6-2.6,2.6H16.7C15.3,19.9,14.1,18.7,14.1,17.3z M9.1,25.5c0-1.4,1.2-2.6,2.6-2.6h5h16.7h5
	c1.4,0,2.6,1.2,2.6,2.6c0,1.4-1.2,2.6-2.6,2.6h-5H16.7h-5C10.3,28.1,9.1,26.9,9.1,25.5z M27.2,39.8c0,0.9-0.7,1.6-1.6,1.6h-1.1
	c-0.9,0-1.6-0.7-1.6-1.6v-0.4h4.3V39.8z M36,33.7c0,1.4-1.2,2.6-2.6,2.6h-3.2H19.9h-3.2c-1.4,0-2.6-1.2-2.6-2.6s1.2-2.6,2.6-2.6
	h16.7C34.8,31.1,36,32.3,36,33.7z"/>
</svg>
