<?xml version="1.0" encoding="utf-8"?>
<!-- Generator: Adobe Illustrator 24.1.1, SVG Export Plug-In . SVG Version: 6.00 Build 0)  -->
<svg version="1.1" id="Layer_1" xmlns="http://www.w3.org/2000/svg" xmlns:xlink="http://www.w3.org/1999/xlink" x="0px" y="0px"
	 viewBox="0 0 50 50" style="enable-background:new 0 0 50 50;" xml:space="preserve">
<style type="text/css">
	.st0{fill:#FFEB3B;}
	.st1{fill:#212121;}
</style>
<g>
	<g>
		<path class="st0" d="M40.6,20.9h-1.3l-0.2-0.7c-0.2-0.6-0.4-1.1-0.7-1.7l-0.3-0.6l0.9-0.9c0.6-0.6,0.9-1.3,0.8-2.1
			c0-0.8-0.3-1.5-0.8-2.1L37.3,11c-0.5-0.5-1.3-0.8-2.1-0.8c-0.8,0-1.5,0.3-2.1,0.8l-0.9,0.9l-0.6-0.3c-0.6-0.3-1.2-0.6-1.8-0.7
			l-0.7-0.2V9.4c0-1.6-1.3-2.9-2.9-2.9h-2.4c-1.6,0-2.9,1.3-2.9,2.9v1.3l-0.7,0.2c-0.6,0.2-1.2,0.4-1.7,0.7l-0.6,0.3L16.9,11
			c-0.5-0.5-1.3-0.8-2.1-0.8c-0.8,0-1.5,0.3-2,0.8l-1.7,1.7c-0.5,0.5-0.8,1.3-0.8,2.1c0,0.8,0.3,1.5,0.8,2.1l0.9,0.9l-0.3,0.6
			c-0.3,0.6-0.6,1.2-0.7,1.8l-0.2,0.7H9.4c-1.6,0-2.9,1.3-2.9,2.9v2.4c0,1.6,1.3,2.9,2.9,2.9h1.3l0.2,0.7c0.2,0.6,0.4,1.2,0.7,1.7
			l0.3,0.6L11,33.1c-0.5,0.5-0.8,1.3-0.8,2.1c0,0.8,0.3,1.5,0.8,2.1l1.7,1.7c0.5,0.5,1.3,0.8,2.1,0.8c0.8,0,1.5-0.3,2.1-0.8l0.9-0.9
			l0.6,0.3c0.6,0.3,1.2,0.6,1.8,0.7l0.7,0.2v1.2c0,1.6,1.3,2.9,2.9,2.9h2.4c1.6,0,2.9-1.3,2.9-2.9v-1.3l0.7-0.2
			c0.6-0.2,1.1-0.4,1.7-0.7l0.6-0.3l0.9,0.9c0.5,0.5,1.3,0.8,2.1,0.8c0.8,0,1.5-0.3,2.1-0.8l1.7-1.7c0.5-0.5,0.8-1.3,0.8-2.1
			c0-0.8-0.3-1.5-0.8-2.1l-0.9-0.9l0.3-0.6c0.3-0.6,0.6-1.2,0.7-1.8l0.2-0.7h1.2c1.6,0,2.9-1.3,2.9-2.9v-2.4
			C43.5,22.2,42.2,20.9,40.6,20.9z M25,32.7c-4.2,0-7.7-3.5-7.7-7.7s3.5-7.7,7.7-7.7s7.7,3.5,7.7,7.7S29.2,32.7,25,32.7z"/>
	</g>
	<path class="st1" d="M40.6,19.9h-0.5c-0.2-0.7-0.5-1.3-0.8-1.9l0.4-0.4c0.7-0.7,1.2-1.7,1.1-2.8c0-1-0.4-2-1.1-2.8L38,10.3
		c-0.7-0.7-1.7-1.1-2.8-1.1l0,0c-1,0-2,0.4-2.8,1.1L32,10.7c-0.6-0.3-1.3-0.6-1.9-0.8V9.4c0-2.2-1.8-3.9-3.9-3.9h-2.4
		c-2.2,0-3.9,1.8-3.9,3.9v0.5c-0.7,0.2-1.3,0.5-1.9,0.8l-0.4-0.4c-1.5-1.5-4.1-1.5-5.5,0L10.4,12c-0.7,0.7-1.1,1.7-1.1,2.8
		s0.4,2,1.1,2.8l0.4,0.4c-0.3,0.6-0.6,1.3-0.8,1.9H9.4c-2.2,0-3.9,1.8-3.9,3.9v2.4c0,2.2,1.8,3.9,3.9,3.9h0.5
		c0.2,0.7,0.5,1.3,0.8,1.9l-0.4,0.4c-0.7,0.7-1.1,1.7-1.1,2.8c0,1,0.4,2,1.1,2.8l1.7,1.7c0.7,0.7,1.7,1.1,2.8,1.1l0,0
		c1,0,2-0.4,2.8-1.1l0.4-0.4c0.6,0.3,1.3,0.6,1.9,0.8v0.5c0,2.2,1.8,3.9,3.9,3.9h2.4c2.2,0,3.9-1.8,3.9-3.9v-0.5
		c0.7-0.2,1.3-0.5,1.9-0.8l0.4,0.4c0.7,0.7,1.7,1.1,2.8,1.1l0,0c1,0,2-0.4,2.8-1.1l1.7-1.7c0.7-0.7,1.1-1.7,1.1-2.8
		c0-1-0.4-2-1.1-2.8L39.3,32c0.3-0.6,0.6-1.3,0.8-1.9h0.5c2.2,0,3.9-1.8,3.9-3.9v-2.4C44.5,21.6,42.7,19.9,40.6,19.9z M37.5,28.2
		c-0.3,1.2-0.8,2.3-1.4,3.3c-0.4,0.6-0.3,1.4,0.2,1.8l1.2,1.2c0.2,0.2,0.3,0.4,0.3,0.6c0,0.2-0.1,0.5-0.3,0.6l-1.7,1.7
		c-0.3,0.3-0.9,0.3-1.2,0l-1.2-1.2c-0.5-0.5-1.2-0.6-1.8-0.2c-1,0.6-2.1,1.1-3.3,1.4c-0.7,0.2-1.1,0.8-1.1,1.5v1.7
		c0,0.5-0.4,0.9-0.9,0.9h-2.4c-0.5,0-0.9-0.4-0.9-0.9v-1.7c0-0.7-0.5-1.3-1.1-1.5c-1.2-0.3-2.3-0.8-3.3-1.4l0,0
		c-0.3-0.1-0.5-0.2-0.8-0.2c-0.4,0-0.8,0.2-1.1,0.4l-1.2,1.2c-0.2,0.2-0.4,0.3-0.6,0.3l0,0c-0.2,0-0.5-0.1-0.6-0.3l-1.7-1.7
		c-0.2-0.2-0.3-0.4-0.3-0.6c0-0.2,0.1-0.5,0.3-0.6l1.2-1.2c0.5-0.5,0.6-1.3,0.2-1.8c-0.6-1-1.1-2.2-1.4-3.3
		c-0.2-0.7-0.8-1.1-1.5-1.1H9.4c-0.5,0-0.9-0.4-0.9-0.9v-2.4c0-0.5,0.4-0.9,0.9-0.9h1.7c0.7,0,1.3-0.5,1.5-1.1
		c0.3-1.2,0.8-2.3,1.4-3.3c0.4-0.6,0.3-1.4-0.2-1.8l-1.2-1.2c-0.2-0.2-0.3-0.4-0.3-0.6c0-0.2,0.1-0.5,0.3-0.6l1.7-1.7
		c0.3-0.3,0.9-0.3,1.2,0l1.2,1.2c0.5,0.5,1.2,0.6,1.8,0.2c1-0.6,2.2-1.1,3.3-1.4c0.7-0.2,1.1-0.8,1.1-1.5V9.4c0-0.5,0.4-0.9,0.9-0.9
		h2.4c0.5,0,0.9,0.4,0.9,0.9v1.7c0,0.7,0.5,1.3,1.1,1.5c1.2,0.3,2.3,0.8,3.3,1.4c0.6,0.4,1.4,0.3,1.8-0.2l1.2-1.2
		c0.2-0.2,0.4-0.3,0.6-0.3l0,0c0.2,0,0.5,0.1,0.6,0.3l1.7,1.7c0.2,0.2,0.3,0.4,0.3,0.6c0,0.2-0.1,0.5-0.3,0.6l-1.2,1.2
		c-0.5,0.5-0.6,1.3-0.2,1.8c0.6,1,1.1,2.2,1.4,3.3c0.2,0.7,0.8,1.1,1.5,1.1h1.7c0.5,0,0.9,0.4,0.9,0.9v2.4c0,0.5-0.4,0.9-0.9,0.9
		h-1.7C38.2,27.1,37.6,27.5,37.5,28.2z"/>
	<path class="st1" d="M25,16.3c-4.8,0-8.7,3.9-8.7,8.7s3.9,8.7,8.7,8.7s8.7-3.9,8.7-8.7S29.8,16.3,25,16.3z M30.7,25
		c0,3.1-2.5,5.7-5.7,5.7c-3.1,0-5.7-2.5-5.7-5.7s2.5-5.7,5.7-5.7C28.1,19.3,30.7,21.9,30.7,25z"/>
</g>
</svg>
