<?xml version="1.0" encoding="utf-8"?>
<!-- Generator: Adobe Illustrator 24.1.1, SVG Export Plug-In . SVG Version: 6.00 Build 0)  -->
<svg version="1.1" id="Layer_1" xmlns="http://www.w3.org/2000/svg" xmlns:xlink="http://www.w3.org/1999/xlink" x="0px" y="0px"
	 viewBox="0 0 50 50" style="enable-background:new 0 0 50 50;" xml:space="preserve">
<style type="text/css">
	.st0{fill:#4CAF50;}
</style>
<g>
	<path class="st0" d="M25,6C14.5,6,6,14.5,6,25s8.5,19,19,19s19-8.5,19-19S35.5,6,25,6z M25,41.5c-9.1,0-16.5-7.4-16.5-16.5
		c0-9.1,7.4-16.5,16.5-16.5c9.1,0,16.5,7.4,16.5,16.5C41.5,34.1,34.1,41.5,25,41.5z"/>
</g>
<path class="st0" d="M33.4,17.4L22.3,29.5l-5.8-5.8c-0.6-0.6-1.5-0.6-2.1,0s-0.6,1.5,0,2.1l6.9,6.9c0.3,0.3,0.7,0.4,1.1,0.4
	s0.8-0.1,1.1-0.4l12.1-13.1c0.6-0.6,0.6-1.5,0-2.1C34.9,16.8,34,16.8,33.4,17.4z"/>
</svg>
