<?xml version="1.0" encoding="utf-8"?>
<!-- Generator: Adobe Illustrator 24.1.1, SVG Export Plug-In . SVG Version: 6.00 Build 0)  -->
<svg version="1.1" id="Layer_1" xmlns="http://www.w3.org/2000/svg" xmlns:xlink="http://www.w3.org/1999/xlink" x="0px" y="0px"
	 viewBox="0 0 50 50" style="enable-background:new 0 0 50 50;" xml:space="preserve">
<style type="text/css">
	.st0{fill:#202020;}
</style>
<path class="st0" d="M13.8,10.5v10.4v1.8v16.2c0,1.2,1,2.2,2.2,2.2h4.4h1.8h14.6c1.2,0,2.2-0.9,2.3-2.2V18.2c0-0.6-0.3-1.2-0.7-1.6
	L30.8,9c-0.5-0.5-1-0.7-1.6-0.7H16C14.8,8.3,13.8,9.3,13.8,10.5z M35.8,16.6h-5c-0.1,0-0.2-0.1-0.2-0.2v-5L35.8,16.6z M15.6,10.5
	c0-0.2,0.2-0.4,0.4-0.4h12.8v6.3c0,1.2,0.9,2.1,2.1,2.1h6.3v20.4c0,0.2-0.2,0.4-0.4,0.4H16c-0.2,0-0.4-0.2-0.4-0.4
	C15.6,38.9,15.6,10.5,15.6,10.5z"/>
<g>
	<path class="st0" d="M32.3,34.4H20.6c-0.6,0-1,0.4-1,1s0.4,1,1,1h11.7c0.6,0,1-0.4,1-1S32.8,34.4,32.3,34.4z"/>
	<path class="st0" d="M23.5,25.5l1.9-1.9v7.1c0,0.6,0.4,1,1,1c0.6,0,1-0.4,1-1v-7.1l1.9,1.9c0.2,0.2,0.5,0.3,0.7,0.3
		s0.5-0.1,0.7-0.3c0.4-0.4,0.4-1,0-1.4l-3.6-3.6c-0.2-0.2-0.4-0.3-0.7-0.3s-0.5,0.1-0.7,0.3L22.1,24c-0.4,0.4-0.4,1,0,1.4
		S23.1,25.8,23.5,25.5z"/>
</g>
</svg>
