<?xml version="1.0" encoding="utf-8"?>
<!-- Generator: Adobe Illustrator 24.1.1, SVG Export Plug-In . SVG Version: 6.00 Build 0)  -->
<svg version="1.1" id="Layer_1" xmlns="http://www.w3.org/2000/svg" xmlns:xlink="http://www.w3.org/1999/xlink" x="0px" y="0px"
	 viewBox="0 0 50 50" style="enable-background:new 0 0 50 50;" xml:space="preserve">
<style type="text/css">
	.st0{fill:#212121;}
</style>
<g>
	<g>
		<path class="st0" d="M38.5,26c2.6-2,3.9-5.4,3-8.7c-1.2-4.4-5.7-7-10-5.8c0.3,0.6,0.6,1.2,0.8,1.9c0.1,0.3,0.2,0.6,0.3,1
			c0.3-0.1,0.7-0.1,1-0.1c2.3,0,4.4,1.5,5,3.9c0.4,1.3,0.2,2.8-0.5,4c-0.7,1.2-1.8,2.1-3.2,2.4h0c-1.2,0.3-2.4,0.2-3.5-0.3
			c-0.4,0.8-1,1.6-1.6,2.4c0.5,0.5,1,1,1.5,1.5c0.9-0.3,1.8-0.4,2.7-0.4c3.6,0.2,6.4,3.3,6.4,7.1v0.5h-5.5c0.2,1,0.3,2,0.3,3h6.7
			l0,0c0.9,0,1.6-0.7,1.6-1.6v-1.9C43.4,31,41.5,27.7,38.5,26z"/>
	</g>
	<path class="st0" d="M25,26.8c4.1-2.6,6.1-7.7,4.5-12.5c-0.9-2.7-2.8-4.9-5.4-6.1c-2.9-1.4-6.3-1.5-9.3-0.1
		c-4.4,2-6.8,6.9-5.9,11.7c0.6,3.1,2.4,5.5,4.8,7c-2.8,1.4-5.1,3.7-6.4,7.1c-0.6,1.5-0.8,3.1-0.8,4.7l0,2.9v0c0,0.9,0.7,1.5,1.6,1.5
		h22.6h0c0.9,0,1.5-0.7,1.5-1.6v-2.7C32.3,33.5,29.3,28.9,25,26.8z M15.6,11.1c1.2-0.7,2.5-1,3.9-1c1.2,0,2.3,0.3,3.4,0.8
		c2.1,1.1,3.7,3,4.1,5.4c0.7,3.4-1.1,6.9-4.2,8.4c-4.7,2.2-10.2-0.7-10.9-5.9C11.4,15.7,12.9,12.6,15.6,11.1z M29.3,40H9.6l0-1.5
		c0-2.4,0.7-4.7,2.2-6.5c2-2.4,4.8-3.7,7.8-3.6c5.3,0.1,9.7,4.7,9.7,10.3V40z"/>
</g>
</svg>
