<?xml version="1.0" encoding="utf-8"?>
<!-- Generator: Adobe Illustrator 24.1.1, SVG Export Plug-In . SVG Version: 6.00 Build 0)  -->
<svg version="1.1" id="Layer_1" xmlns="http://www.w3.org/2000/svg" xmlns:xlink="http://www.w3.org/1999/xlink" x="0px" y="0px"
	 viewBox="0 0 50 50" style="enable-background:new 0 0 50 50;" xml:space="preserve">
<style type="text/css">
	.st0{fill:#DFDFDF;}
</style>
<g>
	<path class="st0" d="M40.4,32.8H9.8c-0.8,0-1.5,0.7-1.5,1.5s0.7,1.5,1.5,1.5h30.6c0.8,0,1.5-0.7,1.5-1.5S41.2,32.8,40.4,32.8z"/>
</g>
<g>
	<path class="st0" d="M40.4,23.1H9.8c-0.8,0-1.5,0.7-1.5,1.5s0.7,1.5,1.5,1.5h30.6c0.8,0,1.5-0.7,1.5-1.5S41.2,23.1,40.4,23.1z"/>
</g>
<g>
	<path class="st0" d="M40.4,13.4H25.8c-0.8,0-1.5,0.7-1.5,1.5s0.7,1.5,1.5,1.5h14.6c0.8,0,1.5-0.7,1.5-1.5S41.2,13.4,40.4,13.4z"/>
</g>
</svg>
