<?xml version="1.0" encoding="utf-8"?>
<!-- Generator: Adobe Illustrator 24.0.2, SVG Export Plug-In . SVG Version: 6.00 Build 0)  -->
<svg version="1.1" id="Layer_1" xmlns="http://www.w3.org/2000/svg" xmlns:xlink="http://www.w3.org/1999/xlink" x="0px" y="0px"
	 viewBox="0 0 32 32" style="enable-background:new 0 0 32 32;" xml:space="preserve">
<style type="text/css">
	.st0{fill:#FFEC3D;}
</style>
<g>
	<path class="st0" d="M22,26.5c-4,0.4-8.1,0.4-12.1,0c-0.1,0-0.2,0-0.2,0.1c0,0.1,0,0.2,0.1,0.2c1.9,1.3,4,1.9,6.2,1.9
		s4.3-0.7,6.2-1.9c0.1-0.1,0.1-0.2,0.1-0.2C22.2,26.6,22.1,26.5,22,26.5z"/>
	<path class="st0" d="M10.6,5.6C12.3,5.9,14.2,6,16,6s3.6-0.1,5.4-0.4c0.1,0,0.2-0.1,0.2-0.2c0-0.1,0-0.2-0.1-0.2
		c-1.7-1-3.6-1.5-5.5-1.5c-1.9,0-3.8,0.5-5.5,1.5c-0.1,0-0.1,0.1-0.1,0.2C10.4,5.5,10.5,5.6,10.6,5.6z"/>
	<path class="st0" d="M6.5,9.6c1.2,0.3,2.5,0.5,3.8,0.7c0,0,0,0,0,0c0.1,0,0.2-0.1,0.2-0.1l0.8-2.1c0-0.1,0-0.1,0-0.2
		c0-0.1-0.1-0.1-0.2-0.1C10.1,7.7,9,7.5,8,7.3c-0.1,0-0.1,0-0.2,0.1C7.3,8,6.8,8.6,6.3,9.3c0,0.1,0,0.1,0,0.2
		C6.3,9.6,6.4,9.6,6.5,9.6z"/>
	<path class="st0" d="M13.6,8c-0.1,0-0.2,0-0.2,0.1l-0.8,2.1c0,0.1,0,0.1,0,0.2c0,0.1,0.1,0.1,0.2,0.1c1.1,0.1,2.2,0.1,3.2,0.1
		c3.2,0,6.4-0.4,9.5-1.1c0.1,0,0.1-0.1,0.1-0.1c0-0.1,0-0.1,0-0.2c-0.4-0.7-0.9-1.4-1.5-2c0-0.1-0.1-0.1-0.2-0.1
		C20.6,8,17.1,8.2,13.6,8z"/>
	<path class="st0" d="M26.3,21.2c-1.1,0.2-2.3,0.4-3.6,0.6c-0.1,0-0.1,0.1-0.2,0.1l-0.9,2.3c0,0.1,0,0.1,0,0.2
		c0,0.1,0.1,0.1,0.2,0.1c0,0,0,0,0,0c1.2-0.1,2.2-0.2,3.1-0.4c0.1,0,0.1,0,0.1-0.1c0.6-0.8,1-1.6,1.4-2.5c0-0.1,0-0.1,0-0.2
		C26.4,21.2,26.4,21.2,26.3,21.2z"/>
	<path class="st0" d="M19.2,24.7c0.1,0,0.2-0.1,0.2-0.1l0.9-2.2c0-0.1,0-0.1,0-0.2c0-0.1-0.1-0.1-0.2-0.1c-4.8,0.4-9.7,0.1-14.4-0.8
		c-0.1,0-0.2,0-0.2,0.1c0,0.1-0.1,0.1,0,0.2c0.4,0.9,0.8,1.7,1.4,2.5c0,0,0.1,0.1,0.1,0.1c2.9,0.5,5.9,0.7,9,0.7
		C17,24.7,18.1,24.7,19.2,24.7z"/>
	<path class="st0" d="M22.1,12.5L22,14.7c0,0.1,0,0.1,0.1,0.2c0,0,0.1,0.1,0.1,0.1c0,0,0,0,0,0c1.7-0.2,3.4-0.5,4.9-0.9
		c0.1,0,0.2-0.1,0.2-0.2c-0.1-0.7-0.3-1.4-0.6-2.1c0-0.1-0.1-0.2-0.2-0.1c-1.3,0.3-2.7,0.6-4.2,0.8C22.2,12.3,22.1,12.4,22.1,12.5z"
		/>
	<path class="st0" d="M4.8,14c3.6,0.9,7.4,1.3,11.2,1.3c1.3,0,2.6-0.1,3.9-0.2c0.1,0,0.2-0.1,0.2-0.2l0.1-2.2c0-0.1,0-0.1-0.1-0.2
		c0,0-0.1-0.1-0.2-0.1C15,13,10.1,12.7,5.4,11.5c-0.1,0-0.2,0-0.2,0.1c-0.3,0.7-0.5,1.4-0.6,2.1C4.6,13.9,4.7,14,4.8,14z"/>
	<path class="st0" d="M12.3,19.9c0.1,0,0.1,0,0.1-0.1c0,0,0.1-0.1,0.1-0.2l-0.1-2.2c0-0.1-0.1-0.2-0.2-0.2c-2.6-0.2-5.1-0.6-7.5-1.1
		c-0.1,0-0.1,0-0.2,0c0,0-0.1,0.1-0.1,0.2c0,0.8,0.1,1.6,0.2,2.3c0,0.1,0.1,0.1,0.2,0.2C7.2,19.4,9.7,19.8,12.3,19.9
		C12.3,19.9,12.3,19.9,12.3,19.9z"/>
	<path class="st0" d="M27.5,16.2c0,0-0.1-0.1-0.2,0c-4.1,1-8.4,1.4-12.7,1.3c-0.1,0-0.1,0-0.2,0.1c0,0-0.1,0.1-0.1,0.2l0.1,2.2
		c0,0.1,0.1,0.2,0.2,0.2c0.4,0,0.8,0,1.2,0c3.8,0,7.6-0.4,11.2-1.2c0.1,0,0.1-0.1,0.2-0.2c0.1-0.8,0.2-1.6,0.2-2.3
		C27.6,16.3,27.5,16.2,27.5,16.2z"/>
</g>
</svg>
