<?xml version="1.0" encoding="utf-8"?>
<!-- Generator: Adobe Illustrator 24.0.2, SVG Export Plug-In . SVG Version: 6.00 Build 0)  -->
<svg version="1.1" id="Layer_1" xmlns="http://www.w3.org/2000/svg" xmlns:xlink="http://www.w3.org/1999/xlink" x="0px" y="0px"
	 viewBox="0 0 180 50" style="enable-background:new 0 0 180 50;" xml:space="preserve">
<style type="text/css">
	.st0{fill:#1D1D1B;}
	.st1{display:none;opacity:0.34;fill:#F70000;enable-background:new    ;}
</style>
<g>
	<path class="st0" d="M82.3,27.4c0,3.3-1.3,4.6-4.6,4.6s-4.6-1.3-4.6-4.6V15.5h2v5.3c0.5-0.7,1.4-1.2,2.9-1.2c3.1,0,4.2,1.7,4.2,4.7
		L82.3,27.4L82.3,27.4z M75.2,27.4c0,2.2,0.9,2.7,2.6,2.7s2.6-0.5,2.6-2.7v-3.1c0-2.3-0.8-2.8-2.6-2.8c-1.4,0-2.5,0.5-2.6,2.7V27.4z
		"/>
	<path class="st0" d="M88.2,29.2c0.2-1.2,0.6-2.7,1.5-5.8l1.2-3.8H93l-3.8,12.2l-0.7,2.3c-0.8,2.5-2.1,3-4.4,2.1l0.3-1.7
		c0.8,0.3,1.8,0.5,2.3-1l0.5-1.7l-3.9-12.2h2.2l1.2,3.9L88.2,29.2z"/>
	<path class="st0" d="M94.5,17.6l1.9-0.2v2.4h2.1v1.9h-2.1v6.8c0,1.2,0.6,1.8,2.2,1.6v1.8c-3.2,0.3-4.1-1.1-4.1-3.4V17.6z"/>
	<path class="st0" d="M109.3,28.3c0,2.4-1.3,3.7-4.4,3.7c-3.2,0-4.5-1.2-4.5-4.5V24c0-3.2,1.7-4.3,4.5-4.3c2.7,0,4.5,1.2,4.5,4.3
		v2.6h-7v0.9c0,2.2,0.8,2.7,2.5,2.7s2.5-0.6,2.5-1.8h1.9V28.3z M102.4,24.8h5.1V24c0-2.1-1-2.6-2.6-2.6s-2.5,0.4-2.5,2.6V24.8
		L102.4,24.8z"/>
	<path class="st0" d="M118.6,31.8v-7.6c0-2.2-0.7-2.8-2.5-2.8c-1.6,0-2.5,0.8-2.5,2.7v7.6h-2V15.5h2v5.3c0.4-0.6,1.4-1.3,2.8-1.3
		c3.1,0,4.2,1.7,4.2,4.7v7.6L118.6,31.8L118.6,31.8z"/>
	<path class="st0" d="M125.4,16.9c0,1.5-2.4,1.6-2.4,0C123,15.4,125.4,15.3,125.4,16.9z M123.2,31.8v-12h2v12.1h-2V31.8z"/>
	<path class="st0" d="M130.1,23.7c0.5,1.8,1,3.8,1.3,5.4c0.3-1.6,0.7-3.6,1.3-5.4l1.3-4h2.1l-3.6,12.2h-2l-3.6-12.2h2.1L130.1,23.7z
		"/>
	<path class="st0" d="M146,28.3c0,2.4-1.3,3.7-4.5,3.7s-4.5-1.2-4.5-4.5V24c0-3.2,1.7-4.3,4.5-4.3c2.7,0,4.5,1.2,4.5,4.3v2.6h-7v0.9
		c0,2.2,0.8,2.7,2.5,2.7s2.5-0.6,2.5-1.8h2V28.3z M139.1,24.8h5.1V24c0-2.1-1-2.6-2.6-2.6s-2.5,0.4-2.5,2.6V24.8L139.1,24.8z"/>
</g>
<path class="st1" d="M58.5,13.7l-9-5.2c-1.3-0.8-3-0.8-4.3,0l-9,5.2c-1.3,0.8-2.2,2.2-2.2,3.7v10.4c0,1.5,0.8,3,2.2,3.7l9,5.2
	c0.7,0.4,1.4,0.6,2.2,0.6s1.5-0.2,2.2-0.6l9-5.2c1.3-0.8,2.2-2.2,2.2-3.7V17.4C60.7,15.9,59.8,14.4,58.5,13.7z"/>
<path class="st1" d="M58.5,17.7l-9-5.2c-1.3-0.8-3-0.8-4.3,0l-9,5.2c-1.3,0.8-2.2,2.2-2.2,3.7v10.4c0,1.5,0.8,3,2.2,3.7l9,5.2
	c0.7,0.4,1.4,0.6,2.2,0.6s1.5-0.2,2.2-0.6l9-5.2c1.3-0.8,2.2-2.2,2.2-3.7V21.4C60.7,19.9,59.8,18.5,58.5,17.7z"/>
<g>
	<path class="st0" d="M52.6,34.1c-3.6,0.4-7.3,0.4-10.9,0c-0.1,0-0.2,0-0.2,0.1c0,0.1,0,0.2,0.1,0.2c1.7,1.1,3.6,1.8,5.6,1.8
		s3.9-0.6,5.6-1.8c0.1,0,0.1-0.1,0.1-0.2C52.8,34.1,52.7,34.1,52.6,34.1z"/>
	<path class="st0" d="M42.3,15.1c1.6,0.2,3.3,0.4,4.9,0.4s3.3-0.1,4.9-0.4c0.1,0,0.1-0.1,0.2-0.1c0-0.1,0-0.2-0.1-0.2
		c-1.5-0.9-3.2-1.4-5-1.4c-1.7,0-3.5,0.5-5,1.4c-0.1,0-0.1,0.1-0.1,0.2C42.1,15.1,42.2,15.1,42.3,15.1z"/>
	<path class="st0" d="M38.6,18.8c1.1,0.3,2.3,0.5,3.4,0.6c0,0,0,0,0,0c0.1,0,0.1,0,0.2-0.1l0.7-1.9c0-0.1,0-0.1,0-0.2
		c0,0-0.1-0.1-0.1-0.1c-0.9-0.1-1.9-0.3-2.8-0.5c-0.1,0-0.1,0-0.2,0.1c-0.5,0.5-1,1.1-1.4,1.8c0,0.1,0,0.1,0,0.2
		C38.5,18.7,38.5,18.7,38.6,18.8z"/>
	<path class="st0" d="M45,17.3c-0.1,0-0.2,0-0.2,0.1l-0.7,1.9c0,0.1,0,0.1,0,0.2c0,0,0.1,0.1,0.1,0.1c1,0.1,2,0.1,2.9,0.1
		c2.9,0,5.8-0.3,8.6-1c0.1,0,0.1-0.1,0.1-0.1c0-0.1,0-0.1,0-0.2c-0.4-0.6-0.8-1.2-1.4-1.8c0,0-0.1-0.1-0.2-0.1
		C51.3,17.3,48.2,17.5,45,17.3z"/>
	<path class="st0" d="M56.5,29.2c-1,0.2-2.1,0.4-3.2,0.5c-0.1,0-0.1,0.1-0.2,0.1l-0.8,2.1c0,0.1,0,0.1,0,0.2c0,0,0.1,0.1,0.1,0.1
		c0,0,0,0,0,0c1.1-0.1,2-0.2,2.8-0.4c0,0,0.1,0,0.1-0.1c0.5-0.7,0.9-1.5,1.3-2.3c0-0.1,0-0.1,0-0.2C56.6,29.2,56.6,29.2,56.5,29.2z"
		/>
	<path class="st0" d="M50.1,32.4c0.1,0,0.1-0.1,0.2-0.1l0.8-2c0-0.1,0-0.1,0-0.2c0-0.1-0.1-0.1-0.2-0.1c-4.4,0.3-8.8,0.1-13-0.7
		c-0.1,0-0.1,0-0.2,0.1c0,0.1-0.1,0.1,0,0.2c0.3,0.8,0.8,1.6,1.3,2.3c0,0,0.1,0.1,0.1,0.1c2.7,0.4,5.4,0.6,8.1,0.6
		C48.1,32.4,49.1,32.4,50.1,32.4z"/>
	<path class="st0" d="M52.8,21.4l-0.1,2c0,0.1,0,0.1,0.1,0.1c0,0,0.1,0,0.1,0c0,0,0,0,0,0c1.5-0.2,3-0.5,4.5-0.8
		c0.1,0,0.2-0.1,0.1-0.2c-0.1-0.6-0.3-1.3-0.5-1.9c0-0.1-0.1-0.1-0.2-0.1c-1.2,0.3-2.5,0.5-3.8,0.7C52.8,21.2,52.8,21.3,52.8,21.4z"
		/>
	<path class="st0" d="M37,22.8c3.3,0.8,6.7,1.2,10.1,1.2c1.2,0,2.3,0,3.5-0.1c0.1,0,0.2-0.1,0.2-0.2l0.1-2c0-0.1,0-0.1-0.1-0.1
		c0,0-0.1-0.1-0.1-0.1c-4.4,0.4-8.8,0.1-13.1-1c-0.1,0-0.2,0-0.2,0.1c-0.2,0.7-0.4,1.3-0.5,1.9C36.9,22.6,36.9,22.7,37,22.8z"/>
	<path class="st0" d="M43.8,28.1c0,0,0.1,0,0.1-0.1c0,0,0.1-0.1,0.1-0.1l-0.1-2c0-0.1-0.1-0.2-0.2-0.2c-2.3-0.2-4.6-0.5-6.8-1
		c-0.1,0-0.1,0-0.2,0c0,0-0.1,0.1-0.1,0.1c0,0.7,0.1,1.4,0.2,2.1c0,0.1,0.1,0.1,0.1,0.1C39.2,27.6,41.5,27.9,43.8,28.1
		C43.8,28.1,43.8,28.1,43.8,28.1z"/>
	<path class="st0" d="M57.6,24.7c0,0-0.1,0-0.2,0c-3.7,0.9-7.6,1.3-11.5,1.2c-0.1,0-0.1,0-0.1,0.1S45.7,26,45.7,26l0.1,2
		c0,0.1,0.1,0.2,0.2,0.2c0.4,0,0.7,0,1.1,0c3.4,0,6.8-0.4,10.1-1.1c0.1,0,0.1-0.1,0.1-0.1c0.1-0.7,0.2-1.4,0.2-2.1
		C57.6,24.8,57.6,24.8,57.6,24.7z"/>
</g>
</svg>
